%TF.GenerationSoftware,KiCad,Pcbnew,7.0.9*%
%TF.CreationDate,2024-05-30T14:00:04-07:00*%
%TF.ProjectId,WSPRzero,57535052-7a65-4726-9f2e-6b696361645f,rev?*%
%TF.SameCoordinates,Original*%
%TF.FileFunction,Soldermask,Bot*%
%TF.FilePolarity,Negative*%
%FSLAX46Y46*%
G04 Gerber Fmt 4.6, Leading zero omitted, Abs format (unit mm)*
G04 Created by KiCad (PCBNEW 7.0.9) date 2024-05-30 14:00:04*
%MOMM*%
%LPD*%
G01*
G04 APERTURE LIST*
%ADD10C,5.600000*%
%ADD11R,1.350000X1.350000*%
%ADD12O,1.350000X1.350000*%
%ADD13C,0.787400*%
%ADD14C,2.050000*%
%ADD15C,2.250000*%
%ADD16R,1.700000X1.700000*%
%ADD17O,1.700000X1.700000*%
G04 APERTURE END LIST*
D10*
%TO.C,H3*%
X111500000Y-76500000D03*
%TD*%
D11*
%TO.C,J4*%
X93750000Y-69000000D03*
D12*
X91750000Y-69000000D03*
%TD*%
D13*
%TO.C,H6*%
X104460000Y-79746000D03*
X105730000Y-79746000D03*
X107000000Y-79746000D03*
X108270000Y-79746000D03*
X109540000Y-79746000D03*
%TD*%
D11*
%TO.C,J9*%
X59000000Y-69000000D03*
D12*
X57000000Y-69000000D03*
%TD*%
D13*
%TO.C,H7*%
X60460000Y-79746000D03*
X61730000Y-79746000D03*
X63000000Y-79746000D03*
X64270000Y-79746000D03*
X65540000Y-79746000D03*
%TD*%
D11*
%TO.C,J1*%
X93750000Y-72500000D03*
D12*
X91750000Y-72500000D03*
%TD*%
D11*
%TO.C,J7*%
X88500000Y-69000000D03*
D12*
X86500000Y-69000000D03*
%TD*%
D14*
%TO.C,J3*%
X55000000Y-61250000D03*
D15*
X57540000Y-58710000D03*
X52460000Y-58710000D03*
X57540000Y-63790000D03*
X52460000Y-63790000D03*
%TD*%
D10*
%TO.C,H2*%
X111500000Y-53500000D03*
%TD*%
%TO.C,H1*%
X53500000Y-53500000D03*
%TD*%
%TO.C,H5*%
X53500000Y-102500000D03*
%TD*%
%TO.C,H4*%
X111500000Y-102500000D03*
%TD*%
D11*
%TO.C,J5*%
X88500000Y-72500000D03*
D12*
X86500000Y-72500000D03*
%TD*%
D16*
%TO.C,J6*%
X112275000Y-71275000D03*
D17*
X109735000Y-71275000D03*
X112275000Y-68735000D03*
X109735000Y-68735000D03*
X112275000Y-66195000D03*
X109735000Y-66195000D03*
%TD*%
D11*
%TO.C,J8*%
X59000000Y-72500000D03*
D12*
X57000000Y-72500000D03*
%TD*%
D16*
%TO.C,J2*%
X58400000Y-54790000D03*
D17*
X58400000Y-52250000D03*
X60940000Y-54790000D03*
X60940000Y-52250000D03*
X63480000Y-54790000D03*
X63480000Y-52250000D03*
X66020000Y-54790000D03*
X66020000Y-52250000D03*
X68560000Y-54790000D03*
X68560000Y-52250000D03*
X71100000Y-54790000D03*
X71100000Y-52250000D03*
X73640000Y-54790000D03*
X73640000Y-52250000D03*
X76180000Y-54790000D03*
X76180000Y-52250000D03*
X78720000Y-54790000D03*
X78720000Y-52250000D03*
X81260000Y-54790000D03*
X81260000Y-52250000D03*
X83800000Y-54790000D03*
X83800000Y-52250000D03*
X86340000Y-54790000D03*
X86340000Y-52250000D03*
X88880000Y-54790000D03*
X88880000Y-52250000D03*
X91420000Y-54790000D03*
X91420000Y-52250000D03*
X93960000Y-54790000D03*
X93960000Y-52250000D03*
X96500000Y-54790000D03*
X96500000Y-52250000D03*
X99040000Y-54790000D03*
X99040000Y-52250000D03*
X101580000Y-54790000D03*
X101580000Y-52250000D03*
X104120000Y-54790000D03*
X104120000Y-52250000D03*
X106660000Y-54790000D03*
X106660000Y-52250000D03*
%TD*%
M02*
