%TF.GenerationSoftware,KiCad,Pcbnew,7.0.9*%
%TF.CreationDate,2024-05-30T14:00:04-07:00*%
%TF.ProjectId,WSPRzero,57535052-7a65-4726-9f2e-6b696361645f,rev?*%
%TF.SameCoordinates,Original*%
%TF.FileFunction,Legend,Bot*%
%TF.FilePolarity,Positive*%
%FSLAX46Y46*%
G04 Gerber Fmt 4.6, Leading zero omitted, Abs format (unit mm)*
G04 Created by KiCad (PCBNEW 7.0.9) date 2024-05-30 14:00:04*
%MOMM*%
%LPD*%
G01*
G04 APERTURE LIST*
%ADD10C,0.180000*%
%ADD11C,0.150000*%
%ADD12C,0.120000*%
%ADD13C,5.600000*%
%ADD14R,1.350000X1.350000*%
%ADD15O,1.350000X1.350000*%
%ADD16C,0.787400*%
%ADD17C,2.050000*%
%ADD18C,2.250000*%
%ADD19R,1.700000X1.700000*%
%ADD20O,1.700000X1.700000*%
G04 APERTURE END LIST*
D10*
X94750000Y-69000000D02*
X96750000Y-69000000D01*
X94750000Y-72500000D02*
X96750000Y-72500000D01*
X57000000Y-70000000D02*
X57000000Y-71500000D01*
X55000000Y-62250000D02*
X55000000Y-67250000D01*
X55000000Y-67250000D02*
X57000000Y-67250000D01*
X91000000Y-72500000D02*
X89500000Y-72500000D01*
X85500000Y-72500000D02*
X60000000Y-72500000D01*
X91000000Y-69000000D02*
X89500000Y-69000000D01*
X57000000Y-67250000D02*
X57000000Y-68000000D01*
X85500000Y-69000000D02*
X60000000Y-69000000D01*
D11*
X98753446Y-72328961D02*
X98753446Y-72862295D01*
X98943922Y-72024200D02*
X99134399Y-72595628D01*
X99134399Y-72595628D02*
X98639160Y-72595628D01*
X98182017Y-72062295D02*
X98105827Y-72062295D01*
X98105827Y-72062295D02*
X98029636Y-72100390D01*
X98029636Y-72100390D02*
X97991541Y-72138485D01*
X97991541Y-72138485D02*
X97953446Y-72214676D01*
X97953446Y-72214676D02*
X97915351Y-72367057D01*
X97915351Y-72367057D02*
X97915351Y-72557533D01*
X97915351Y-72557533D02*
X97953446Y-72709914D01*
X97953446Y-72709914D02*
X97991541Y-72786104D01*
X97991541Y-72786104D02*
X98029636Y-72824200D01*
X98029636Y-72824200D02*
X98105827Y-72862295D01*
X98105827Y-72862295D02*
X98182017Y-72862295D01*
X98182017Y-72862295D02*
X98258208Y-72824200D01*
X98258208Y-72824200D02*
X98296303Y-72786104D01*
X98296303Y-72786104D02*
X98334398Y-72709914D01*
X98334398Y-72709914D02*
X98372494Y-72557533D01*
X98372494Y-72557533D02*
X98372494Y-72367057D01*
X98372494Y-72367057D02*
X98334398Y-72214676D01*
X98334398Y-72214676D02*
X98296303Y-72138485D01*
X98296303Y-72138485D02*
X98258208Y-72100390D01*
X98258208Y-72100390D02*
X98182017Y-72062295D01*
X97572493Y-72862295D02*
X97572493Y-72062295D01*
X97572493Y-72062295D02*
X97305827Y-72633723D01*
X97305827Y-72633723D02*
X97039160Y-72062295D01*
X97039160Y-72062295D02*
X97039160Y-72862295D01*
X102312971Y-68638485D02*
X102274875Y-68600390D01*
X102274875Y-68600390D02*
X102198685Y-68562295D01*
X102198685Y-68562295D02*
X102008209Y-68562295D01*
X102008209Y-68562295D02*
X101932018Y-68600390D01*
X101932018Y-68600390D02*
X101893923Y-68638485D01*
X101893923Y-68638485D02*
X101855828Y-68714676D01*
X101855828Y-68714676D02*
X101855828Y-68790866D01*
X101855828Y-68790866D02*
X101893923Y-68905152D01*
X101893923Y-68905152D02*
X102351066Y-69362295D01*
X102351066Y-69362295D02*
X101855828Y-69362295D01*
X101360589Y-68562295D02*
X101284399Y-68562295D01*
X101284399Y-68562295D02*
X101208208Y-68600390D01*
X101208208Y-68600390D02*
X101170113Y-68638485D01*
X101170113Y-68638485D02*
X101132018Y-68714676D01*
X101132018Y-68714676D02*
X101093923Y-68867057D01*
X101093923Y-68867057D02*
X101093923Y-69057533D01*
X101093923Y-69057533D02*
X101132018Y-69209914D01*
X101132018Y-69209914D02*
X101170113Y-69286104D01*
X101170113Y-69286104D02*
X101208208Y-69324200D01*
X101208208Y-69324200D02*
X101284399Y-69362295D01*
X101284399Y-69362295D02*
X101360589Y-69362295D01*
X101360589Y-69362295D02*
X101436780Y-69324200D01*
X101436780Y-69324200D02*
X101474875Y-69286104D01*
X101474875Y-69286104D02*
X101512970Y-69209914D01*
X101512970Y-69209914D02*
X101551066Y-69057533D01*
X101551066Y-69057533D02*
X101551066Y-68867057D01*
X101551066Y-68867057D02*
X101512970Y-68714676D01*
X101512970Y-68714676D02*
X101474875Y-68638485D01*
X101474875Y-68638485D02*
X101436780Y-68600390D01*
X101436780Y-68600390D02*
X101360589Y-68562295D01*
X100751065Y-69362295D02*
X100751065Y-68562295D01*
X100751065Y-68562295D02*
X100484399Y-69133723D01*
X100484399Y-69133723D02*
X100217732Y-68562295D01*
X100217732Y-68562295D02*
X100217732Y-69362295D01*
X99836779Y-69057533D02*
X99227256Y-69057533D01*
X98922494Y-68562295D02*
X98427256Y-68562295D01*
X98427256Y-68562295D02*
X98693922Y-68867057D01*
X98693922Y-68867057D02*
X98579637Y-68867057D01*
X98579637Y-68867057D02*
X98503446Y-68905152D01*
X98503446Y-68905152D02*
X98465351Y-68943247D01*
X98465351Y-68943247D02*
X98427256Y-69019438D01*
X98427256Y-69019438D02*
X98427256Y-69209914D01*
X98427256Y-69209914D02*
X98465351Y-69286104D01*
X98465351Y-69286104D02*
X98503446Y-69324200D01*
X98503446Y-69324200D02*
X98579637Y-69362295D01*
X98579637Y-69362295D02*
X98808208Y-69362295D01*
X98808208Y-69362295D02*
X98884399Y-69324200D01*
X98884399Y-69324200D02*
X98922494Y-69286104D01*
X97932017Y-68562295D02*
X97855827Y-68562295D01*
X97855827Y-68562295D02*
X97779636Y-68600390D01*
X97779636Y-68600390D02*
X97741541Y-68638485D01*
X97741541Y-68638485D02*
X97703446Y-68714676D01*
X97703446Y-68714676D02*
X97665351Y-68867057D01*
X97665351Y-68867057D02*
X97665351Y-69057533D01*
X97665351Y-69057533D02*
X97703446Y-69209914D01*
X97703446Y-69209914D02*
X97741541Y-69286104D01*
X97741541Y-69286104D02*
X97779636Y-69324200D01*
X97779636Y-69324200D02*
X97855827Y-69362295D01*
X97855827Y-69362295D02*
X97932017Y-69362295D01*
X97932017Y-69362295D02*
X98008208Y-69324200D01*
X98008208Y-69324200D02*
X98046303Y-69286104D01*
X98046303Y-69286104D02*
X98084398Y-69209914D01*
X98084398Y-69209914D02*
X98122494Y-69057533D01*
X98122494Y-69057533D02*
X98122494Y-68867057D01*
X98122494Y-68867057D02*
X98084398Y-68714676D01*
X98084398Y-68714676D02*
X98046303Y-68638485D01*
X98046303Y-68638485D02*
X98008208Y-68600390D01*
X98008208Y-68600390D02*
X97932017Y-68562295D01*
X97322493Y-69362295D02*
X97322493Y-68562295D01*
X97322493Y-68562295D02*
X97055827Y-69133723D01*
X97055827Y-69133723D02*
X96789160Y-68562295D01*
X96789160Y-68562295D02*
X96789160Y-69362295D01*
X64695238Y-104312295D02*
X64695238Y-104883723D01*
X64695238Y-104883723D02*
X64733333Y-104998009D01*
X64733333Y-104998009D02*
X64809524Y-105074200D01*
X64809524Y-105074200D02*
X64923809Y-105112295D01*
X64923809Y-105112295D02*
X65000000Y-105112295D01*
X63933333Y-105112295D02*
X64314285Y-105112295D01*
X64314285Y-105112295D02*
X64314285Y-104312295D01*
X63209523Y-105036104D02*
X63247619Y-105074200D01*
X63247619Y-105074200D02*
X63361904Y-105112295D01*
X63361904Y-105112295D02*
X63438095Y-105112295D01*
X63438095Y-105112295D02*
X63552381Y-105074200D01*
X63552381Y-105074200D02*
X63628571Y-104998009D01*
X63628571Y-104998009D02*
X63666666Y-104921819D01*
X63666666Y-104921819D02*
X63704762Y-104769438D01*
X63704762Y-104769438D02*
X63704762Y-104655152D01*
X63704762Y-104655152D02*
X63666666Y-104502771D01*
X63666666Y-104502771D02*
X63628571Y-104426580D01*
X63628571Y-104426580D02*
X63552381Y-104350390D01*
X63552381Y-104350390D02*
X63438095Y-104312295D01*
X63438095Y-104312295D02*
X63361904Y-104312295D01*
X63361904Y-104312295D02*
X63247619Y-104350390D01*
X63247619Y-104350390D02*
X63209523Y-104388485D01*
X62638095Y-104312295D02*
X62638095Y-104883723D01*
X62638095Y-104883723D02*
X62676190Y-104998009D01*
X62676190Y-104998009D02*
X62752381Y-105074200D01*
X62752381Y-105074200D02*
X62866666Y-105112295D01*
X62866666Y-105112295D02*
X62942857Y-105112295D01*
X61876190Y-105112295D02*
X62257142Y-105112295D01*
X62257142Y-105112295D02*
X62257142Y-104312295D01*
X61152380Y-105036104D02*
X61190476Y-105074200D01*
X61190476Y-105074200D02*
X61304761Y-105112295D01*
X61304761Y-105112295D02*
X61380952Y-105112295D01*
X61380952Y-105112295D02*
X61495238Y-105074200D01*
X61495238Y-105074200D02*
X61571428Y-104998009D01*
X61571428Y-104998009D02*
X61609523Y-104921819D01*
X61609523Y-104921819D02*
X61647619Y-104769438D01*
X61647619Y-104769438D02*
X61647619Y-104655152D01*
X61647619Y-104655152D02*
X61609523Y-104502771D01*
X61609523Y-104502771D02*
X61571428Y-104426580D01*
X61571428Y-104426580D02*
X61495238Y-104350390D01*
X61495238Y-104350390D02*
X61380952Y-104312295D01*
X61380952Y-104312295D02*
X61304761Y-104312295D01*
X61304761Y-104312295D02*
X61190476Y-104350390D01*
X61190476Y-104350390D02*
X61152380Y-104388485D01*
X60580952Y-104312295D02*
X60580952Y-104883723D01*
X60580952Y-104883723D02*
X60619047Y-104998009D01*
X60619047Y-104998009D02*
X60695238Y-105074200D01*
X60695238Y-105074200D02*
X60809523Y-105112295D01*
X60809523Y-105112295D02*
X60885714Y-105112295D01*
X59819047Y-105112295D02*
X60199999Y-105112295D01*
X60199999Y-105112295D02*
X60199999Y-104312295D01*
X59095237Y-105036104D02*
X59133333Y-105074200D01*
X59133333Y-105074200D02*
X59247618Y-105112295D01*
X59247618Y-105112295D02*
X59323809Y-105112295D01*
X59323809Y-105112295D02*
X59438095Y-105074200D01*
X59438095Y-105074200D02*
X59514285Y-104998009D01*
X59514285Y-104998009D02*
X59552380Y-104921819D01*
X59552380Y-104921819D02*
X59590476Y-104769438D01*
X59590476Y-104769438D02*
X59590476Y-104655152D01*
X59590476Y-104655152D02*
X59552380Y-104502771D01*
X59552380Y-104502771D02*
X59514285Y-104426580D01*
X59514285Y-104426580D02*
X59438095Y-104350390D01*
X59438095Y-104350390D02*
X59323809Y-104312295D01*
X59323809Y-104312295D02*
X59247618Y-104312295D01*
X59247618Y-104312295D02*
X59133333Y-104350390D01*
X59133333Y-104350390D02*
X59095237Y-104388485D01*
X58523809Y-104312295D02*
X58523809Y-104883723D01*
X58523809Y-104883723D02*
X58561904Y-104998009D01*
X58561904Y-104998009D02*
X58638095Y-105074200D01*
X58638095Y-105074200D02*
X58752380Y-105112295D01*
X58752380Y-105112295D02*
X58828571Y-105112295D01*
X57761904Y-105112295D02*
X58142856Y-105112295D01*
X58142856Y-105112295D02*
X58142856Y-104312295D01*
X57038094Y-105036104D02*
X57076190Y-105074200D01*
X57076190Y-105074200D02*
X57190475Y-105112295D01*
X57190475Y-105112295D02*
X57266666Y-105112295D01*
X57266666Y-105112295D02*
X57380952Y-105074200D01*
X57380952Y-105074200D02*
X57457142Y-104998009D01*
X57457142Y-104998009D02*
X57495237Y-104921819D01*
X57495237Y-104921819D02*
X57533333Y-104769438D01*
X57533333Y-104769438D02*
X57533333Y-104655152D01*
X57533333Y-104655152D02*
X57495237Y-104502771D01*
X57495237Y-104502771D02*
X57457142Y-104426580D01*
X57457142Y-104426580D02*
X57380952Y-104350390D01*
X57380952Y-104350390D02*
X57266666Y-104312295D01*
X57266666Y-104312295D02*
X57190475Y-104312295D01*
X57190475Y-104312295D02*
X57076190Y-104350390D01*
X57076190Y-104350390D02*
X57038094Y-104388485D01*
D12*
%TO.C,J2*%
X107990000Y-50920000D02*
X107990000Y-56120000D01*
X57070000Y-50920000D02*
X107990000Y-50920000D01*
X57070000Y-50920000D02*
X57070000Y-53520000D01*
X59670000Y-53520000D02*
X59670000Y-56120000D01*
X57070000Y-53520000D02*
X59670000Y-53520000D01*
X57070000Y-54790000D02*
X57070000Y-56120000D01*
X59670000Y-56120000D02*
X107990000Y-56120000D01*
X57070000Y-56120000D02*
X58400000Y-56120000D01*
%TD*%
%LPC*%
D13*
%TO.C,H3*%
X111500000Y-76500000D03*
%TD*%
D14*
%TO.C,J4*%
X93750000Y-69000000D03*
D15*
X91750000Y-69000000D03*
%TD*%
D16*
%TO.C,H6*%
X104460000Y-79746000D03*
X105730000Y-79746000D03*
X107000000Y-79746000D03*
X108270000Y-79746000D03*
X109540000Y-79746000D03*
%TD*%
D14*
%TO.C,J9*%
X59000000Y-69000000D03*
D15*
X57000000Y-69000000D03*
%TD*%
D16*
%TO.C,H7*%
X60460000Y-79746000D03*
X61730000Y-79746000D03*
X63000000Y-79746000D03*
X64270000Y-79746000D03*
X65540000Y-79746000D03*
%TD*%
D14*
%TO.C,J1*%
X93750000Y-72500000D03*
D15*
X91750000Y-72500000D03*
%TD*%
D14*
%TO.C,J7*%
X88500000Y-69000000D03*
D15*
X86500000Y-69000000D03*
%TD*%
D17*
%TO.C,J3*%
X55000000Y-61250000D03*
D18*
X57540000Y-58710000D03*
X52460000Y-58710000D03*
X57540000Y-63790000D03*
X52460000Y-63790000D03*
%TD*%
D13*
%TO.C,H2*%
X111500000Y-53500000D03*
%TD*%
%TO.C,H1*%
X53500000Y-53500000D03*
%TD*%
%TO.C,H5*%
X53500000Y-102500000D03*
%TD*%
%TO.C,H4*%
X111500000Y-102500000D03*
%TD*%
D14*
%TO.C,J5*%
X88500000Y-72500000D03*
D15*
X86500000Y-72500000D03*
%TD*%
D19*
%TO.C,J6*%
X112275000Y-71275000D03*
D20*
X109735000Y-71275000D03*
X112275000Y-68735000D03*
X109735000Y-68735000D03*
X112275000Y-66195000D03*
X109735000Y-66195000D03*
%TD*%
D14*
%TO.C,J8*%
X59000000Y-72500000D03*
D15*
X57000000Y-72500000D03*
%TD*%
D19*
%TO.C,J2*%
X58400000Y-54790000D03*
D20*
X58400000Y-52250000D03*
X60940000Y-54790000D03*
X60940000Y-52250000D03*
X63480000Y-54790000D03*
X63480000Y-52250000D03*
X66020000Y-54790000D03*
X66020000Y-52250000D03*
X68560000Y-54790000D03*
X68560000Y-52250000D03*
X71100000Y-54790000D03*
X71100000Y-52250000D03*
X73640000Y-54790000D03*
X73640000Y-52250000D03*
X76180000Y-54790000D03*
X76180000Y-52250000D03*
X78720000Y-54790000D03*
X78720000Y-52250000D03*
X81260000Y-54790000D03*
X81260000Y-52250000D03*
X83800000Y-54790000D03*
X83800000Y-52250000D03*
X86340000Y-54790000D03*
X86340000Y-52250000D03*
X88880000Y-54790000D03*
X88880000Y-52250000D03*
X91420000Y-54790000D03*
X91420000Y-52250000D03*
X93960000Y-54790000D03*
X93960000Y-52250000D03*
X96500000Y-54790000D03*
X96500000Y-52250000D03*
X99040000Y-54790000D03*
X99040000Y-52250000D03*
X101580000Y-54790000D03*
X101580000Y-52250000D03*
X104120000Y-54790000D03*
X104120000Y-52250000D03*
X106660000Y-54790000D03*
X106660000Y-52250000D03*
%TD*%
%LPD*%
M02*
