M48
; DRILL file {KiCad 7.0.9} date Thu May 30 14:00:04 2024
; FORMAT={-:-/ absolute / inch / decimal}
; #@! TF.CreationDate,2024-05-30T14:00:04-07:00
; #@! TF.GenerationSoftware,Kicad,Pcbnew,7.0.9
; #@! TF.FileFunction,Plated,1,2,PTH
FMAT,2
INCH
; #@! TA.AperFunction,Plated,PTH,ViaDrill
T1C0.0157
; #@! TA.AperFunction,Plated,PTH,ComponentDrill
T2C0.0315
; #@! TA.AperFunction,Plated,PTH,ComponentDrill
T3C0.0394
; #@! TA.AperFunction,Plated,PTH,ComponentDrill
T4C0.0591
; #@! TA.AperFunction,Plated,PTH,ComponentDrill
T5C0.0669
; #@! TA.AperFunction,Plated,PTH,ComponentDrill
T6C0.1260
%
G90
G05
T1
X3.1142Y-2.4075
X3.9567Y-2.3327
T2
X2.2441Y-2.7165
X2.2441Y-2.8543
X2.3228Y-2.7165
X2.3228Y-2.8543
X3.4055Y-2.7165
X3.4055Y-2.8543
X3.4843Y-2.7165
X3.4843Y-2.8543
X3.6122Y-2.7165
X3.6122Y-2.8543
X3.6909Y-2.7165
X3.6909Y-2.8543
T3
X2.2992Y-2.0571
X2.2992Y-2.1571
X2.3992Y-2.0571
X2.3992Y-2.1571
X2.4992Y-2.0571
X2.4992Y-2.1571
X2.5992Y-2.0571
X2.5992Y-2.1571
X2.6992Y-2.0571
X2.6992Y-2.1571
X2.7992Y-2.0571
X2.7992Y-2.1571
X2.8992Y-2.0571
X2.8992Y-2.1571
X2.9992Y-2.0571
X2.9992Y-2.1571
X3.0992Y-2.0571
X3.0992Y-2.1571
X3.1992Y-2.0571
X3.1992Y-2.1571
X3.2992Y-2.0571
X3.2992Y-2.1571
X3.3992Y-2.0571
X3.3992Y-2.1571
X3.4992Y-2.0571
X3.4992Y-2.1571
X3.5992Y-2.0571
X3.5992Y-2.1571
X3.6992Y-2.0571
X3.6992Y-2.1571
X3.7992Y-2.0571
X3.7992Y-2.1571
X3.8992Y-2.0571
X3.8992Y-2.1571
X3.9992Y-2.0571
X3.9992Y-2.1571
X4.0992Y-2.0571
X4.0992Y-2.1571
X4.1992Y-2.0571
X4.1992Y-2.1571
X4.3203Y-2.6061
X4.3203Y-2.7061
X4.3203Y-2.8061
X4.4203Y-2.6061
X4.4203Y-2.7061
X4.4203Y-2.8061
T4
X2.1654Y-2.4114
T5
X2.0654Y-2.3114
X2.0654Y-2.5114
X2.2654Y-2.3114
X2.2654Y-2.5114
T6
X2.1063Y-2.1063
X2.1063Y-4.0354
X4.3898Y-2.1063
X4.3898Y-3.0118
X4.3898Y-4.0354
T0
M30
