%TF.GenerationSoftware,KiCad,Pcbnew,7.0.9*%
%TF.CreationDate,2024-05-30T14:00:04-07:00*%
%TF.ProjectId,WSPRzero,57535052-7a65-4726-9f2e-6b696361645f,rev?*%
%TF.SameCoordinates,Original*%
%TF.FileFunction,Copper,L2,Bot*%
%TF.FilePolarity,Positive*%
%FSLAX46Y46*%
G04 Gerber Fmt 4.6, Leading zero omitted, Abs format (unit mm)*
G04 Created by KiCad (PCBNEW 7.0.9) date 2024-05-30 14:00:04*
%MOMM*%
%LPD*%
G01*
G04 APERTURE LIST*
%TA.AperFunction,ComponentPad*%
%ADD10C,5.600000*%
%TD*%
%TA.AperFunction,ComponentPad*%
%ADD11R,1.350000X1.350000*%
%TD*%
%TA.AperFunction,ComponentPad*%
%ADD12O,1.350000X1.350000*%
%TD*%
%TA.AperFunction,ComponentPad*%
%ADD13C,2.050000*%
%TD*%
%TA.AperFunction,ComponentPad*%
%ADD14C,2.250000*%
%TD*%
%TA.AperFunction,ComponentPad*%
%ADD15R,1.700000X1.700000*%
%TD*%
%TA.AperFunction,ComponentPad*%
%ADD16O,1.700000X1.700000*%
%TD*%
%TA.AperFunction,ViaPad*%
%ADD17C,0.800000*%
%TD*%
%TA.AperFunction,Conductor*%
%ADD18C,0.250000*%
%TD*%
G04 APERTURE END LIST*
D10*
%TO.P,H3,1*%
%TO.N,N/C*%
X111500000Y-76500000D03*
%TD*%
D11*
%TO.P,J4,1,Pin_1*%
%TO.N,Net-(J4-Pin_1)*%
X93750000Y-69000000D03*
D12*
%TO.P,J4,2,Pin_2*%
%TO.N,Net-(J1-Pin_2)*%
X91750000Y-69000000D03*
%TD*%
D11*
%TO.P,J9,1,Pin_1*%
%TO.N,Net-(J9-Pin_1)*%
X59000000Y-69000000D03*
D12*
%TO.P,J9,2,Pin_2*%
%TO.N,Net-(D1-A)*%
X57000000Y-69000000D03*
%TD*%
D11*
%TO.P,J1,1,Pin_1*%
%TO.N,Net-(J1-Pin_1)*%
X93750000Y-72500000D03*
D12*
%TO.P,J1,2,Pin_2*%
%TO.N,Net-(J1-Pin_2)*%
X91750000Y-72500000D03*
%TD*%
D11*
%TO.P,J7,1,Pin_1*%
%TO.N,Net-(J5-Pin_1)*%
X88500000Y-69000000D03*
D12*
%TO.P,J7,2,Pin_2*%
%TO.N,Net-(J7-Pin_2)*%
X86500000Y-69000000D03*
%TD*%
D13*
%TO.P,J3,1,Pin_1*%
%TO.N,Net-(D1-A)*%
X55000000Y-61250000D03*
D14*
%TO.P,J3,2,Pin_2*%
%TO.N,GND*%
X57540000Y-58710000D03*
X52460000Y-58710000D03*
X57540000Y-63790000D03*
X52460000Y-63790000D03*
%TD*%
D10*
%TO.P,H2,1*%
%TO.N,N/C*%
X111500000Y-53500000D03*
%TD*%
%TO.P,H1,1*%
%TO.N,N/C*%
X53500000Y-53500000D03*
%TD*%
%TO.P,H5,1*%
%TO.N,N/C*%
X53500000Y-102500000D03*
%TD*%
%TO.P,H4,1*%
%TO.N,N/C*%
X111500000Y-102500000D03*
%TD*%
D11*
%TO.P,J5,1,Pin_1*%
%TO.N,Net-(J5-Pin_1)*%
X88500000Y-72500000D03*
D12*
%TO.P,J5,2,Pin_2*%
%TO.N,Net-(J5-Pin_2)*%
X86500000Y-72500000D03*
%TD*%
D15*
%TO.P,J6,1,Pin_1*%
%TO.N,GND*%
X112275000Y-71275000D03*
D16*
%TO.P,J6,2,Pin_2*%
%TO.N,/SCL*%
X109735000Y-71275000D03*
%TO.P,J6,3,Pin_3*%
%TO.N,VCC*%
X112275000Y-68735000D03*
%TO.P,J6,4,Pin_4*%
%TO.N,/SDA*%
X109735000Y-68735000D03*
%TO.P,J6,5,Pin_5*%
%TO.N,VCC*%
X112275000Y-66195000D03*
%TO.P,J6,6,Pin_6*%
%TO.N,/3.3V*%
X109735000Y-66195000D03*
%TD*%
D11*
%TO.P,J8,1,Pin_1*%
%TO.N,Net-(J8-Pin_1)*%
X59000000Y-72500000D03*
D12*
%TO.P,J8,2,Pin_2*%
%TO.N,Net-(D1-A)*%
X57000000Y-72500000D03*
%TD*%
D15*
%TO.P,J2,1,Pin_1*%
%TO.N,/3.3V*%
X58400000Y-54790000D03*
D16*
%TO.P,J2,2,Pin_2*%
%TO.N,VCC*%
X58400000Y-52250000D03*
%TO.P,J2,3,Pin_3*%
%TO.N,/SDA*%
X60940000Y-54790000D03*
%TO.P,J2,4,Pin_4*%
%TO.N,VCC*%
X60940000Y-52250000D03*
%TO.P,J2,5,Pin_5*%
%TO.N,/SCL*%
X63480000Y-54790000D03*
%TO.P,J2,6,Pin_6*%
%TO.N,GND*%
X63480000Y-52250000D03*
%TO.P,J2,7,Pin_7*%
%TO.N,Net-(J2-Pin_7)*%
X66020000Y-54790000D03*
%TO.P,J2,8,Pin_8*%
%TO.N,unconnected-(J2-Pin_8-Pad8)*%
X66020000Y-52250000D03*
%TO.P,J2,9,Pin_9*%
%TO.N,GND*%
X68560000Y-54790000D03*
%TO.P,J2,10,Pin_10*%
%TO.N,unconnected-(J2-Pin_10-Pad10)*%
X68560000Y-52250000D03*
%TO.P,J2,11,Pin_11*%
%TO.N,unconnected-(J2-Pin_11-Pad11)*%
X71100000Y-54790000D03*
%TO.P,J2,12,Pin_12*%
%TO.N,Net-(J2-Pin_12)*%
X71100000Y-52250000D03*
%TO.P,J2,13,Pin_13*%
%TO.N,unconnected-(J2-Pin_13-Pad13)*%
X73640000Y-54790000D03*
%TO.P,J2,14,Pin_14*%
%TO.N,GND*%
X73640000Y-52250000D03*
%TO.P,J2,15,Pin_15*%
%TO.N,unconnected-(J2-Pin_15-Pad15)*%
X76180000Y-54790000D03*
%TO.P,J2,16,Pin_16*%
%TO.N,unconnected-(J2-Pin_16-Pad16)*%
X76180000Y-52250000D03*
%TO.P,J2,17,Pin_17*%
%TO.N,unconnected-(J2-Pin_17-Pad17)*%
X78720000Y-54790000D03*
%TO.P,J2,18,Pin_18*%
%TO.N,unconnected-(J2-Pin_18-Pad18)*%
X78720000Y-52250000D03*
%TO.P,J2,19,Pin_19*%
%TO.N,unconnected-(J2-Pin_19-Pad19)*%
X81260000Y-54790000D03*
%TO.P,J2,20,Pin_20*%
%TO.N,GND*%
X81260000Y-52250000D03*
%TO.P,J2,21,Pin_21*%
%TO.N,unconnected-(J2-Pin_21-Pad21)*%
X83800000Y-54790000D03*
%TO.P,J2,22,Pin_22*%
%TO.N,unconnected-(J2-Pin_22-Pad22)*%
X83800000Y-52250000D03*
%TO.P,J2,23,Pin_23*%
%TO.N,unconnected-(J2-Pin_23-Pad23)*%
X86340000Y-54790000D03*
%TO.P,J2,24,Pin_24*%
%TO.N,unconnected-(J2-Pin_24-Pad24)*%
X86340000Y-52250000D03*
%TO.P,J2,25,Pin_25*%
%TO.N,GND*%
X88880000Y-54790000D03*
%TO.P,J2,26,Pin_26*%
%TO.N,unconnected-(J2-Pin_26-Pad26)*%
X88880000Y-52250000D03*
%TO.P,J2,27,Pin_27*%
%TO.N,unconnected-(J2-Pin_27-Pad27)*%
X91420000Y-54790000D03*
%TO.P,J2,28,Pin_28*%
%TO.N,unconnected-(J2-Pin_28-Pad28)*%
X91420000Y-52250000D03*
%TO.P,J2,29,Pin_29*%
%TO.N,unconnected-(J2-Pin_29-Pad29)*%
X93960000Y-54790000D03*
%TO.P,J2,30,Pin_30*%
%TO.N,GND*%
X93960000Y-52250000D03*
%TO.P,J2,31,Pin_31*%
%TO.N,unconnected-(J2-Pin_31-Pad31)*%
X96500000Y-54790000D03*
%TO.P,J2,32,Pin_32*%
%TO.N,unconnected-(J2-Pin_32-Pad32)*%
X96500000Y-52250000D03*
%TO.P,J2,33,Pin_33*%
%TO.N,unconnected-(J2-Pin_33-Pad33)*%
X99040000Y-54790000D03*
%TO.P,J2,34,Pin_34*%
%TO.N,GND*%
X99040000Y-52250000D03*
%TO.P,J2,35,Pin_35*%
%TO.N,Net-(J2-Pin_35)*%
X101580000Y-54790000D03*
%TO.P,J2,36,Pin_36*%
%TO.N,unconnected-(J2-Pin_36-Pad36)*%
X101580000Y-52250000D03*
%TO.P,J2,37,Pin_37*%
%TO.N,unconnected-(J2-Pin_37-Pad37)*%
X104120000Y-54790000D03*
%TO.P,J2,38,Pin_38*%
%TO.N,unconnected-(J2-Pin_38-Pad38)*%
X104120000Y-52250000D03*
%TO.P,J2,39,Pin_39*%
%TO.N,GND*%
X106660000Y-54790000D03*
%TO.P,J2,40,Pin_40*%
%TO.N,unconnected-(J2-Pin_40-Pad40)*%
X106660000Y-52250000D03*
%TD*%
D17*
%TO.N,Net-(J2-Pin_35)*%
X79100000Y-61150000D03*
%TO.N,VCC*%
X100500000Y-59250000D03*
%TD*%
D18*
%TO.N,Net-(J2-Pin_35)*%
X99620000Y-56750000D02*
X101580000Y-54790000D01*
X80250000Y-56750000D02*
X99620000Y-56750000D01*
X79100000Y-61150000D02*
X79100000Y-57900000D01*
X79100000Y-57900000D02*
X80250000Y-56750000D01*
%TO.N,/SDA*%
X108285000Y-51576903D02*
X108285000Y-67325000D01*
X107258097Y-50550000D02*
X108285000Y-51576903D01*
X108285000Y-67325000D02*
X109725000Y-68765000D01*
X63518299Y-50550000D02*
X107258097Y-50550000D01*
X60940000Y-54790000D02*
X62250000Y-53480000D01*
X62250000Y-53480000D02*
X62250000Y-51818299D01*
X62250000Y-51818299D02*
X63518299Y-50550000D01*
%TO.N,/SCL*%
X107835000Y-69415000D02*
X109725000Y-71305000D01*
X63480000Y-54790000D02*
X64750000Y-53520000D01*
X107071701Y-51000000D02*
X107835000Y-51763299D01*
X64750000Y-51858299D02*
X65608299Y-51000000D01*
X65608299Y-51000000D02*
X107071701Y-51000000D01*
X64750000Y-53520000D02*
X64750000Y-51858299D01*
X107835000Y-51763299D02*
X107835000Y-69415000D01*
%TD*%
%TA.AperFunction,Conductor*%
%TO.N,VCC*%
G36*
X112001293Y-50000567D02*
G01*
X112133628Y-50007503D01*
X112317654Y-50017838D01*
X112322597Y-50018367D01*
X112475647Y-50042608D01*
X112638763Y-50070322D01*
X112643252Y-50071303D01*
X112796693Y-50112418D01*
X112926782Y-50149896D01*
X112952235Y-50157229D01*
X112956265Y-50158579D01*
X113106183Y-50216127D01*
X113254469Y-50277549D01*
X113257981Y-50279169D01*
X113357520Y-50329887D01*
X113401922Y-50352511D01*
X113541864Y-50429854D01*
X113544839Y-50431638D01*
X113680858Y-50519970D01*
X113680872Y-50519979D01*
X113811071Y-50612361D01*
X113813578Y-50614263D01*
X113938985Y-50715814D01*
X113940802Y-50717359D01*
X113966388Y-50740224D01*
X114058967Y-50822958D01*
X114060985Y-50824866D01*
X114175132Y-50939013D01*
X114177040Y-50941031D01*
X114269509Y-51044504D01*
X114282625Y-51059180D01*
X114284184Y-51061013D01*
X114385735Y-51186420D01*
X114387637Y-51188927D01*
X114480020Y-51319127D01*
X114484159Y-51325500D01*
X114556709Y-51437218D01*
X114568340Y-51455127D01*
X114570150Y-51458144D01*
X114647488Y-51598077D01*
X114720825Y-51742008D01*
X114722453Y-51745539D01*
X114783877Y-51893829D01*
X114841416Y-52043726D01*
X114842769Y-52047763D01*
X114887579Y-52203297D01*
X114928693Y-52356739D01*
X114929680Y-52361261D01*
X114957394Y-52524369D01*
X114981629Y-52677388D01*
X114982161Y-52682359D01*
X114992509Y-52866616D01*
X114996142Y-52935930D01*
X114999293Y-52996059D01*
X114999432Y-52998699D01*
X114999500Y-53001291D01*
X114999500Y-76998708D01*
X114999432Y-77001300D01*
X114992509Y-77133383D01*
X114982161Y-77317639D01*
X114981629Y-77322609D01*
X114957394Y-77475630D01*
X114929680Y-77638737D01*
X114928693Y-77643259D01*
X114887579Y-77796702D01*
X114842769Y-77952235D01*
X114841416Y-77956272D01*
X114783877Y-78106170D01*
X114722453Y-78254459D01*
X114720825Y-78257990D01*
X114647488Y-78401922D01*
X114570150Y-78541855D01*
X114568340Y-78544871D01*
X114480020Y-78680872D01*
X114387637Y-78811071D01*
X114385735Y-78813579D01*
X114284184Y-78938985D01*
X114282625Y-78940818D01*
X114177040Y-79058967D01*
X114175132Y-79060985D01*
X114060985Y-79175132D01*
X114058967Y-79177040D01*
X113940818Y-79282625D01*
X113938985Y-79284184D01*
X113813579Y-79385735D01*
X113811071Y-79387637D01*
X113680872Y-79480020D01*
X113544871Y-79568340D01*
X113541855Y-79570150D01*
X113401922Y-79647488D01*
X113257990Y-79720825D01*
X113254459Y-79722453D01*
X113106170Y-79783877D01*
X112956272Y-79841416D01*
X112952235Y-79842769D01*
X112796702Y-79887579D01*
X112643259Y-79928693D01*
X112638737Y-79929680D01*
X112475630Y-79957394D01*
X112322609Y-79981629D01*
X112317639Y-79982161D01*
X112133383Y-79992509D01*
X112036388Y-79997592D01*
X112001293Y-79999432D01*
X111998709Y-79999500D01*
X110500500Y-79999500D01*
X110500000Y-79999500D01*
X110412468Y-79999500D01*
X110412467Y-79999500D01*
X110408901Y-79999812D01*
X110404587Y-80000000D01*
X110267034Y-80000000D01*
X110208843Y-79981093D01*
X110172879Y-79931593D01*
X110169788Y-79882449D01*
X110188038Y-79786777D01*
X110188039Y-79786771D01*
X110177819Y-79624333D01*
X110177819Y-79624330D01*
X110127522Y-79469533D01*
X110127520Y-79469530D01*
X110127520Y-79469529D01*
X110038691Y-79329557D01*
X110023474Y-79270294D01*
X110045998Y-79213405D01*
X110097659Y-79180620D01*
X110158723Y-79184462D01*
X110166699Y-79188035D01*
X110309549Y-79259777D01*
X110637989Y-79379319D01*
X110637992Y-79379319D01*
X110637993Y-79379320D01*
X110978075Y-79459921D01*
X110978080Y-79459921D01*
X110978086Y-79459923D01*
X111325241Y-79500500D01*
X111325244Y-79500500D01*
X111674756Y-79500500D01*
X111674759Y-79500500D01*
X112021914Y-79459923D01*
X112021920Y-79459921D01*
X112021924Y-79459921D01*
X112326914Y-79387637D01*
X112362011Y-79379319D01*
X112690451Y-79259777D01*
X113002793Y-79102913D01*
X113294811Y-78910849D01*
X113562558Y-78686183D01*
X113802412Y-78431953D01*
X114011130Y-78151596D01*
X114185889Y-77848904D01*
X114324326Y-77527971D01*
X114424569Y-77193136D01*
X114485262Y-76848927D01*
X114505585Y-76500000D01*
X114485262Y-76151073D01*
X114424569Y-75806864D01*
X114324326Y-75472029D01*
X114185889Y-75151096D01*
X114011130Y-74848404D01*
X113802412Y-74568047D01*
X113562558Y-74313817D01*
X113294811Y-74089151D01*
X113200157Y-74026896D01*
X113002794Y-73897087D01*
X112690453Y-73740224D01*
X112690452Y-73740223D01*
X112690451Y-73740223D01*
X112362011Y-73620681D01*
X112362012Y-73620681D01*
X112362006Y-73620679D01*
X112021924Y-73540078D01*
X111909089Y-73526889D01*
X111674759Y-73499500D01*
X111325241Y-73499500D01*
X111133950Y-73521858D01*
X110978075Y-73540078D01*
X110637993Y-73620679D01*
X110441191Y-73692309D01*
X110309549Y-73740223D01*
X110309548Y-73740223D01*
X110309546Y-73740224D01*
X109997205Y-73897087D01*
X109705190Y-74089150D01*
X109437443Y-74313815D01*
X109197591Y-74568043D01*
X108988871Y-74848402D01*
X108988869Y-74848405D01*
X108814111Y-75151095D01*
X108814108Y-75151102D01*
X108675674Y-75472027D01*
X108675672Y-75472034D01*
X108575430Y-75806865D01*
X108575430Y-75806866D01*
X108514738Y-76151070D01*
X108494415Y-76500000D01*
X108514738Y-76848929D01*
X108575430Y-77193133D01*
X108575430Y-77193134D01*
X108675672Y-77527965D01*
X108675674Y-77527972D01*
X108716938Y-77623632D01*
X108814111Y-77848904D01*
X108988870Y-78151596D01*
X109197588Y-78431953D01*
X109437442Y-78686183D01*
X109705189Y-78910849D01*
X109739051Y-78933120D01*
X109777278Y-78980893D01*
X109780125Y-79042012D01*
X109746503Y-79093132D01*
X109689255Y-79114726D01*
X109660028Y-79111723D01*
X109621382Y-79101800D01*
X109621381Y-79101800D01*
X109499472Y-79101800D01*
X109499471Y-79101800D01*
X109378524Y-79117078D01*
X109227188Y-79176997D01*
X109227180Y-79177001D01*
X109095511Y-79272664D01*
X108991758Y-79398079D01*
X108988423Y-79403336D01*
X108987290Y-79402617D01*
X108950077Y-79442237D01*
X108889974Y-79453695D01*
X108834615Y-79427637D01*
X108818804Y-79408523D01*
X108812175Y-79398077D01*
X108770310Y-79332108D01*
X108770307Y-79332105D01*
X108651662Y-79220689D01*
X108509029Y-79142277D01*
X108351382Y-79101800D01*
X108351381Y-79101800D01*
X108229472Y-79101800D01*
X108229471Y-79101800D01*
X108108524Y-79117078D01*
X107957188Y-79176997D01*
X107957180Y-79177001D01*
X107825511Y-79272664D01*
X107721758Y-79398079D01*
X107718423Y-79403336D01*
X107717290Y-79402617D01*
X107680077Y-79442237D01*
X107619974Y-79453695D01*
X107564615Y-79427637D01*
X107548804Y-79408523D01*
X107542175Y-79398077D01*
X107500310Y-79332108D01*
X107500307Y-79332105D01*
X107381662Y-79220689D01*
X107239029Y-79142277D01*
X107081382Y-79101800D01*
X107081381Y-79101800D01*
X106959472Y-79101800D01*
X106959471Y-79101800D01*
X106838524Y-79117078D01*
X106687188Y-79176997D01*
X106687180Y-79177001D01*
X106555511Y-79272664D01*
X106451758Y-79398079D01*
X106448423Y-79403336D01*
X106447290Y-79402617D01*
X106410077Y-79442237D01*
X106349974Y-79453695D01*
X106294615Y-79427637D01*
X106278804Y-79408523D01*
X106272175Y-79398077D01*
X106230310Y-79332108D01*
X106230307Y-79332105D01*
X106111662Y-79220689D01*
X105969029Y-79142277D01*
X105811382Y-79101800D01*
X105811381Y-79101800D01*
X105689472Y-79101800D01*
X105689471Y-79101800D01*
X105568524Y-79117078D01*
X105417188Y-79176997D01*
X105417180Y-79177001D01*
X105285511Y-79272664D01*
X105181758Y-79398079D01*
X105178423Y-79403336D01*
X105177290Y-79402617D01*
X105140077Y-79442237D01*
X105079974Y-79453695D01*
X105024615Y-79427637D01*
X105008804Y-79408523D01*
X105002175Y-79398077D01*
X104960310Y-79332108D01*
X104960307Y-79332105D01*
X104841662Y-79220689D01*
X104699029Y-79142277D01*
X104541382Y-79101800D01*
X104541381Y-79101800D01*
X104419472Y-79101800D01*
X104419471Y-79101800D01*
X104298524Y-79117078D01*
X104147188Y-79176997D01*
X104147180Y-79177001D01*
X104015511Y-79272664D01*
X103911760Y-79398077D01*
X103842459Y-79545349D01*
X103811961Y-79705222D01*
X103811960Y-79705227D01*
X103822180Y-79867669D01*
X103823071Y-79870409D01*
X103823070Y-79872335D01*
X103823347Y-79873782D01*
X103823070Y-79873834D01*
X103823070Y-79931594D01*
X103787106Y-79981093D01*
X103728916Y-80000000D01*
X103595401Y-80000000D01*
X103591087Y-79999812D01*
X103587531Y-79999501D01*
X103500098Y-79999501D01*
X66500501Y-79999501D01*
X66500001Y-79999501D01*
X66412469Y-79999501D01*
X66412468Y-79999501D01*
X66408913Y-79999812D01*
X66404599Y-80000000D01*
X66267034Y-80000000D01*
X66208843Y-79981093D01*
X66172879Y-79931593D01*
X66169788Y-79882449D01*
X66188038Y-79786777D01*
X66188039Y-79786771D01*
X66177819Y-79624333D01*
X66177819Y-79624330D01*
X66127522Y-79469533D01*
X66040310Y-79332108D01*
X66040309Y-79332107D01*
X66040308Y-79332105D01*
X65921662Y-79220689D01*
X65779029Y-79142277D01*
X65621382Y-79101800D01*
X65621381Y-79101800D01*
X65499472Y-79101800D01*
X65499471Y-79101800D01*
X65378524Y-79117078D01*
X65227188Y-79176997D01*
X65227180Y-79177001D01*
X65095511Y-79272664D01*
X64991758Y-79398079D01*
X64988423Y-79403336D01*
X64987290Y-79402617D01*
X64950077Y-79442237D01*
X64889974Y-79453695D01*
X64834615Y-79427637D01*
X64818804Y-79408523D01*
X64812175Y-79398077D01*
X64770310Y-79332108D01*
X64770307Y-79332105D01*
X64651662Y-79220689D01*
X64509029Y-79142277D01*
X64351382Y-79101800D01*
X64351381Y-79101800D01*
X64229472Y-79101800D01*
X64229471Y-79101800D01*
X64108524Y-79117078D01*
X63957188Y-79176997D01*
X63957180Y-79177001D01*
X63825511Y-79272664D01*
X63721758Y-79398079D01*
X63718423Y-79403336D01*
X63717290Y-79402617D01*
X63680077Y-79442237D01*
X63619974Y-79453695D01*
X63564615Y-79427637D01*
X63548804Y-79408523D01*
X63542175Y-79398077D01*
X63500310Y-79332108D01*
X63500307Y-79332105D01*
X63381662Y-79220689D01*
X63239029Y-79142277D01*
X63081382Y-79101800D01*
X63081381Y-79101800D01*
X62959472Y-79101800D01*
X62959471Y-79101800D01*
X62838524Y-79117078D01*
X62687188Y-79176997D01*
X62687180Y-79177001D01*
X62555511Y-79272664D01*
X62451758Y-79398079D01*
X62448423Y-79403336D01*
X62447290Y-79402617D01*
X62410077Y-79442237D01*
X62349974Y-79453695D01*
X62294615Y-79427637D01*
X62278804Y-79408523D01*
X62272175Y-79398077D01*
X62230310Y-79332108D01*
X62230307Y-79332105D01*
X62111662Y-79220689D01*
X61969029Y-79142277D01*
X61811382Y-79101800D01*
X61811381Y-79101800D01*
X61689472Y-79101800D01*
X61689471Y-79101800D01*
X61568524Y-79117078D01*
X61417188Y-79176997D01*
X61417180Y-79177001D01*
X61285511Y-79272664D01*
X61181758Y-79398079D01*
X61178423Y-79403336D01*
X61177290Y-79402617D01*
X61140077Y-79442237D01*
X61079974Y-79453695D01*
X61024615Y-79427637D01*
X61008804Y-79408523D01*
X61002175Y-79398077D01*
X60960310Y-79332108D01*
X60960307Y-79332105D01*
X60841662Y-79220689D01*
X60699029Y-79142277D01*
X60541382Y-79101800D01*
X60541381Y-79101800D01*
X60419472Y-79101800D01*
X60419471Y-79101800D01*
X60298524Y-79117078D01*
X60147188Y-79176997D01*
X60147180Y-79177001D01*
X60015511Y-79272664D01*
X59911760Y-79398077D01*
X59842459Y-79545349D01*
X59811961Y-79705222D01*
X59811960Y-79705227D01*
X59822180Y-79867669D01*
X59823071Y-79870409D01*
X59823070Y-79872335D01*
X59823347Y-79873782D01*
X59823070Y-79873834D01*
X59823070Y-79931594D01*
X59787106Y-79981093D01*
X59728916Y-80000000D01*
X59595401Y-80000000D01*
X59591087Y-79999812D01*
X59587531Y-79999501D01*
X59587530Y-79999501D01*
X58001290Y-79999501D01*
X57998705Y-79999433D01*
X57953328Y-79997055D01*
X57866613Y-79992510D01*
X57682358Y-79982162D01*
X57677387Y-79981630D01*
X57524368Y-79957395D01*
X57361260Y-79929681D01*
X57356738Y-79928694D01*
X57203296Y-79887580D01*
X57047758Y-79842769D01*
X57043720Y-79841415D01*
X56893812Y-79783871D01*
X56745547Y-79722457D01*
X56742016Y-79720829D01*
X56598087Y-79647494D01*
X56458132Y-79570144D01*
X56455116Y-79568334D01*
X56319137Y-79480028D01*
X56188916Y-79387631D01*
X56186409Y-79385729D01*
X56061022Y-79284194D01*
X56059200Y-79282645D01*
X55941029Y-79177040D01*
X55939012Y-79175133D01*
X55824865Y-79060986D01*
X55822957Y-79058968D01*
X55807804Y-79042012D01*
X55717348Y-78940792D01*
X55715804Y-78938976D01*
X55614269Y-78813589D01*
X55612367Y-78811082D01*
X55519971Y-78680862D01*
X55431664Y-78544882D01*
X55429854Y-78541865D01*
X55429848Y-78541855D01*
X55421050Y-78525935D01*
X55352505Y-78401912D01*
X55279169Y-78257982D01*
X55277545Y-78254459D01*
X55216132Y-78106197D01*
X55158580Y-77956270D01*
X55157229Y-77952240D01*
X55112419Y-77796703D01*
X55107314Y-77777652D01*
X55071302Y-77643253D01*
X55070321Y-77638764D01*
X55042600Y-77475607D01*
X55018366Y-77322598D01*
X55017837Y-77317655D01*
X55007489Y-77133383D01*
X55000566Y-77001295D01*
X55000499Y-76998710D01*
X55000500Y-72500000D01*
X56119678Y-72500000D01*
X56138916Y-72683034D01*
X56195784Y-72858054D01*
X56195790Y-72858068D01*
X56268893Y-72984684D01*
X56287805Y-73017440D01*
X56410950Y-73154207D01*
X56559839Y-73262381D01*
X56559843Y-73262383D01*
X56559845Y-73262384D01*
X56615485Y-73287156D01*
X56727966Y-73337236D01*
X56907981Y-73375500D01*
X56907983Y-73375500D01*
X57092017Y-73375500D01*
X57092019Y-73375500D01*
X57272034Y-73337236D01*
X57440161Y-73262381D01*
X57533253Y-73194746D01*
X58124500Y-73194746D01*
X58124501Y-73194758D01*
X58136132Y-73253227D01*
X58136134Y-73253233D01*
X58142249Y-73262384D01*
X58180448Y-73319552D01*
X58246769Y-73363867D01*
X58291231Y-73372711D01*
X58305241Y-73375498D01*
X58305246Y-73375498D01*
X58305252Y-73375500D01*
X58305253Y-73375500D01*
X59694747Y-73375500D01*
X59694748Y-73375500D01*
X59753231Y-73363867D01*
X59819552Y-73319552D01*
X59863867Y-73253231D01*
X59875500Y-73194748D01*
X59875500Y-72500000D01*
X85619678Y-72500000D01*
X85638916Y-72683034D01*
X85695784Y-72858054D01*
X85695790Y-72858068D01*
X85768893Y-72984684D01*
X85787805Y-73017440D01*
X85910950Y-73154207D01*
X86059839Y-73262381D01*
X86059843Y-73262383D01*
X86059845Y-73262384D01*
X86115485Y-73287156D01*
X86227966Y-73337236D01*
X86407981Y-73375500D01*
X86407983Y-73375500D01*
X86592017Y-73375500D01*
X86592019Y-73375500D01*
X86772034Y-73337236D01*
X86940161Y-73262381D01*
X87033253Y-73194746D01*
X87624500Y-73194746D01*
X87624501Y-73194758D01*
X87636132Y-73253227D01*
X87636134Y-73253233D01*
X87642249Y-73262384D01*
X87680448Y-73319552D01*
X87746769Y-73363867D01*
X87791231Y-73372711D01*
X87805241Y-73375498D01*
X87805246Y-73375498D01*
X87805252Y-73375500D01*
X87805253Y-73375500D01*
X89194747Y-73375500D01*
X89194748Y-73375500D01*
X89253231Y-73363867D01*
X89319552Y-73319552D01*
X89363867Y-73253231D01*
X89375500Y-73194748D01*
X89375500Y-72500000D01*
X90869678Y-72500000D01*
X90888916Y-72683034D01*
X90945784Y-72858054D01*
X90945790Y-72858068D01*
X91018893Y-72984684D01*
X91037805Y-73017440D01*
X91160950Y-73154207D01*
X91309839Y-73262381D01*
X91309843Y-73262383D01*
X91309845Y-73262384D01*
X91365485Y-73287156D01*
X91477966Y-73337236D01*
X91657981Y-73375500D01*
X91657983Y-73375500D01*
X91842017Y-73375500D01*
X91842019Y-73375500D01*
X92022034Y-73337236D01*
X92190161Y-73262381D01*
X92283253Y-73194746D01*
X92874500Y-73194746D01*
X92874501Y-73194758D01*
X92886132Y-73253227D01*
X92886134Y-73253233D01*
X92892249Y-73262384D01*
X92930448Y-73319552D01*
X92996769Y-73363867D01*
X93041231Y-73372711D01*
X93055241Y-73375498D01*
X93055246Y-73375498D01*
X93055252Y-73375500D01*
X93055253Y-73375500D01*
X94444747Y-73375500D01*
X94444748Y-73375500D01*
X94503231Y-73363867D01*
X94569552Y-73319552D01*
X94613867Y-73253231D01*
X94625500Y-73194748D01*
X94625500Y-71805252D01*
X94613867Y-71746769D01*
X94569552Y-71680448D01*
X94569548Y-71680445D01*
X94503233Y-71636134D01*
X94503231Y-71636133D01*
X94503228Y-71636132D01*
X94503227Y-71636132D01*
X94444758Y-71624501D01*
X94444748Y-71624500D01*
X93055252Y-71624500D01*
X93055251Y-71624500D01*
X93055241Y-71624501D01*
X92996772Y-71636132D01*
X92996766Y-71636134D01*
X92930451Y-71680445D01*
X92930445Y-71680451D01*
X92886134Y-71746766D01*
X92886132Y-71746772D01*
X92874501Y-71805241D01*
X92874500Y-71805253D01*
X92874500Y-73194746D01*
X92283253Y-73194746D01*
X92339050Y-73154207D01*
X92462195Y-73017440D01*
X92554214Y-72858059D01*
X92611085Y-72683029D01*
X92630322Y-72500000D01*
X92611085Y-72316971D01*
X92554214Y-72141941D01*
X92554211Y-72141936D01*
X92554209Y-72141931D01*
X92484625Y-72021410D01*
X92462195Y-71982560D01*
X92339050Y-71845793D01*
X92190161Y-71737619D01*
X92190157Y-71737617D01*
X92190154Y-71737615D01*
X92022036Y-71662765D01*
X92022034Y-71662764D01*
X92022031Y-71662763D01*
X92022030Y-71662763D01*
X91975135Y-71652795D01*
X91842019Y-71624500D01*
X91657981Y-71624500D01*
X91560797Y-71645157D01*
X91477969Y-71662763D01*
X91477963Y-71662765D01*
X91309845Y-71737615D01*
X91309842Y-71737617D01*
X91160948Y-71845794D01*
X91037803Y-71982562D01*
X91037803Y-71982563D01*
X90945790Y-72141931D01*
X90945784Y-72141945D01*
X90888916Y-72316965D01*
X90888915Y-72316969D01*
X90888915Y-72316971D01*
X90869678Y-72500000D01*
X89375500Y-72500000D01*
X89375500Y-71805252D01*
X89363867Y-71746769D01*
X89319552Y-71680448D01*
X89319548Y-71680445D01*
X89253233Y-71636134D01*
X89253231Y-71636133D01*
X89253228Y-71636132D01*
X89253227Y-71636132D01*
X89194758Y-71624501D01*
X89194748Y-71624500D01*
X87805252Y-71624500D01*
X87805251Y-71624500D01*
X87805241Y-71624501D01*
X87746772Y-71636132D01*
X87746766Y-71636134D01*
X87680451Y-71680445D01*
X87680445Y-71680451D01*
X87636134Y-71746766D01*
X87636132Y-71746772D01*
X87624501Y-71805241D01*
X87624500Y-71805253D01*
X87624500Y-73194746D01*
X87033253Y-73194746D01*
X87089050Y-73154207D01*
X87212195Y-73017440D01*
X87304214Y-72858059D01*
X87361085Y-72683029D01*
X87380322Y-72500000D01*
X87361085Y-72316971D01*
X87304214Y-72141941D01*
X87304211Y-72141936D01*
X87304209Y-72141931D01*
X87234625Y-72021410D01*
X87212195Y-71982560D01*
X87089050Y-71845793D01*
X86940161Y-71737619D01*
X86940157Y-71737617D01*
X86940154Y-71737615D01*
X86772036Y-71662765D01*
X86772034Y-71662764D01*
X86772031Y-71662763D01*
X86772030Y-71662763D01*
X86725135Y-71652795D01*
X86592019Y-71624500D01*
X86407981Y-71624500D01*
X86310797Y-71645157D01*
X86227969Y-71662763D01*
X86227963Y-71662765D01*
X86059845Y-71737615D01*
X86059842Y-71737617D01*
X85910948Y-71845794D01*
X85787803Y-71982562D01*
X85787803Y-71982563D01*
X85695790Y-72141931D01*
X85695784Y-72141945D01*
X85638916Y-72316965D01*
X85638915Y-72316969D01*
X85638915Y-72316971D01*
X85619678Y-72500000D01*
X59875500Y-72500000D01*
X59875500Y-71805252D01*
X59863867Y-71746769D01*
X59819552Y-71680448D01*
X59819548Y-71680445D01*
X59753233Y-71636134D01*
X59753231Y-71636133D01*
X59753228Y-71636132D01*
X59753227Y-71636132D01*
X59694758Y-71624501D01*
X59694748Y-71624500D01*
X58305252Y-71624500D01*
X58305251Y-71624500D01*
X58305241Y-71624501D01*
X58246772Y-71636132D01*
X58246766Y-71636134D01*
X58180451Y-71680445D01*
X58180445Y-71680451D01*
X58136134Y-71746766D01*
X58136132Y-71746772D01*
X58124501Y-71805241D01*
X58124500Y-71805253D01*
X58124500Y-73194746D01*
X57533253Y-73194746D01*
X57589050Y-73154207D01*
X57712195Y-73017440D01*
X57804214Y-72858059D01*
X57861085Y-72683029D01*
X57880322Y-72500000D01*
X57861085Y-72316971D01*
X57804214Y-72141941D01*
X57804211Y-72141936D01*
X57804209Y-72141931D01*
X57734625Y-72021410D01*
X57712195Y-71982560D01*
X57589050Y-71845793D01*
X57440161Y-71737619D01*
X57440157Y-71737617D01*
X57440154Y-71737615D01*
X57272036Y-71662765D01*
X57272034Y-71662764D01*
X57272031Y-71662763D01*
X57272030Y-71662763D01*
X57225135Y-71652795D01*
X57092019Y-71624500D01*
X56907981Y-71624500D01*
X56810797Y-71645157D01*
X56727969Y-71662763D01*
X56727963Y-71662765D01*
X56559845Y-71737615D01*
X56559842Y-71737617D01*
X56410948Y-71845794D01*
X56287803Y-71982562D01*
X56287803Y-71982563D01*
X56195790Y-72141931D01*
X56195784Y-72141945D01*
X56138916Y-72316965D01*
X56138915Y-72316969D01*
X56138915Y-72316971D01*
X56119678Y-72500000D01*
X55000500Y-72500000D01*
X55000500Y-70499901D01*
X55000500Y-70412468D01*
X55000499Y-70412463D01*
X54997828Y-70397315D01*
X54970101Y-70240062D01*
X54910225Y-70075555D01*
X54822692Y-69923945D01*
X54710163Y-69789837D01*
X54576055Y-69677308D01*
X54464126Y-69612685D01*
X54424447Y-69589776D01*
X54424441Y-69589773D01*
X54259948Y-69529902D01*
X54259940Y-69529900D01*
X54259938Y-69529899D01*
X54225456Y-69523819D01*
X54087536Y-69499500D01*
X54087532Y-69499500D01*
X54000099Y-69499500D01*
X51002162Y-69499500D01*
X50997845Y-69499311D01*
X50954554Y-69495523D01*
X50826201Y-69482881D01*
X50810284Y-69479985D01*
X50763909Y-69467560D01*
X50741669Y-69461601D01*
X50701271Y-69449347D01*
X50646739Y-69432804D01*
X50633639Y-69427791D01*
X50564308Y-69395462D01*
X50561893Y-69394255D01*
X50477009Y-69348883D01*
X50471946Y-69345773D01*
X50404777Y-69298740D01*
X50401765Y-69296455D01*
X50328723Y-69236512D01*
X50325121Y-69233247D01*
X50266751Y-69174877D01*
X50263486Y-69171275D01*
X50203543Y-69098233D01*
X50201258Y-69095221D01*
X50154225Y-69028052D01*
X50151115Y-69022989D01*
X50138827Y-69000000D01*
X56119678Y-69000000D01*
X56138058Y-69174877D01*
X56138916Y-69183034D01*
X56195784Y-69358054D01*
X56195790Y-69358068D01*
X56267003Y-69481410D01*
X56287805Y-69517440D01*
X56373562Y-69612683D01*
X56386862Y-69627455D01*
X56410950Y-69654207D01*
X56559839Y-69762381D01*
X56559843Y-69762383D01*
X56559845Y-69762384D01*
X56599928Y-69780230D01*
X56727966Y-69837236D01*
X56907981Y-69875500D01*
X56907983Y-69875500D01*
X57092017Y-69875500D01*
X57092019Y-69875500D01*
X57272034Y-69837236D01*
X57440161Y-69762381D01*
X57533253Y-69694746D01*
X58124500Y-69694746D01*
X58124501Y-69694758D01*
X58136132Y-69753227D01*
X58136134Y-69753233D01*
X58160593Y-69789838D01*
X58180448Y-69819552D01*
X58246769Y-69863867D01*
X58291231Y-69872711D01*
X58305241Y-69875498D01*
X58305246Y-69875498D01*
X58305252Y-69875500D01*
X58305253Y-69875500D01*
X59694747Y-69875500D01*
X59694748Y-69875500D01*
X59753231Y-69863867D01*
X59819552Y-69819552D01*
X59863867Y-69753231D01*
X59875500Y-69694748D01*
X59875500Y-69000000D01*
X85619678Y-69000000D01*
X85638058Y-69174877D01*
X85638916Y-69183034D01*
X85695784Y-69358054D01*
X85695790Y-69358068D01*
X85767003Y-69481410D01*
X85787805Y-69517440D01*
X85873562Y-69612683D01*
X85886862Y-69627455D01*
X85910950Y-69654207D01*
X86059839Y-69762381D01*
X86059843Y-69762383D01*
X86059845Y-69762384D01*
X86099928Y-69780230D01*
X86227966Y-69837236D01*
X86407981Y-69875500D01*
X86407983Y-69875500D01*
X86592017Y-69875500D01*
X86592019Y-69875500D01*
X86772034Y-69837236D01*
X86940161Y-69762381D01*
X87033253Y-69694746D01*
X87624500Y-69694746D01*
X87624501Y-69694758D01*
X87636132Y-69753227D01*
X87636134Y-69753233D01*
X87660593Y-69789838D01*
X87680448Y-69819552D01*
X87746769Y-69863867D01*
X87791231Y-69872711D01*
X87805241Y-69875498D01*
X87805246Y-69875498D01*
X87805252Y-69875500D01*
X87805253Y-69875500D01*
X89194747Y-69875500D01*
X89194748Y-69875500D01*
X89253231Y-69863867D01*
X89319552Y-69819552D01*
X89363867Y-69753231D01*
X89375500Y-69694748D01*
X89375500Y-69000000D01*
X90869678Y-69000000D01*
X90888058Y-69174877D01*
X90888916Y-69183034D01*
X90945784Y-69358054D01*
X90945790Y-69358068D01*
X91017003Y-69481410D01*
X91037805Y-69517440D01*
X91123562Y-69612683D01*
X91136862Y-69627455D01*
X91160950Y-69654207D01*
X91309839Y-69762381D01*
X91309843Y-69762383D01*
X91309845Y-69762384D01*
X91349928Y-69780230D01*
X91477966Y-69837236D01*
X91657981Y-69875500D01*
X91657983Y-69875500D01*
X91842017Y-69875500D01*
X91842019Y-69875500D01*
X92022034Y-69837236D01*
X92190161Y-69762381D01*
X92283253Y-69694746D01*
X92874500Y-69694746D01*
X92874501Y-69694758D01*
X92886132Y-69753227D01*
X92886134Y-69753233D01*
X92910593Y-69789838D01*
X92930448Y-69819552D01*
X92996769Y-69863867D01*
X93041231Y-69872711D01*
X93055241Y-69875498D01*
X93055246Y-69875498D01*
X93055252Y-69875500D01*
X93055253Y-69875500D01*
X94444747Y-69875500D01*
X94444748Y-69875500D01*
X94503231Y-69863867D01*
X94569552Y-69819552D01*
X94613867Y-69753231D01*
X94625500Y-69694748D01*
X94625500Y-68305252D01*
X94613867Y-68246769D01*
X94569552Y-68180448D01*
X94543088Y-68162765D01*
X94503233Y-68136134D01*
X94503231Y-68136133D01*
X94503228Y-68136132D01*
X94503227Y-68136132D01*
X94444758Y-68124501D01*
X94444748Y-68124500D01*
X93055252Y-68124500D01*
X93055251Y-68124500D01*
X93055241Y-68124501D01*
X92996772Y-68136132D01*
X92996766Y-68136134D01*
X92930451Y-68180445D01*
X92930445Y-68180451D01*
X92886134Y-68246766D01*
X92886132Y-68246772D01*
X92874501Y-68305241D01*
X92874500Y-68305253D01*
X92874500Y-69694746D01*
X92283253Y-69694746D01*
X92339050Y-69654207D01*
X92462195Y-69517440D01*
X92554214Y-69358059D01*
X92611085Y-69183029D01*
X92630322Y-69000000D01*
X92611085Y-68816971D01*
X92554214Y-68641941D01*
X92554211Y-68641936D01*
X92554209Y-68641931D01*
X92489101Y-68529163D01*
X92462195Y-68482560D01*
X92339050Y-68345793D01*
X92190161Y-68237619D01*
X92190157Y-68237617D01*
X92190154Y-68237615D01*
X92022036Y-68162765D01*
X92022034Y-68162764D01*
X92022031Y-68162763D01*
X92022030Y-68162763D01*
X91955149Y-68148547D01*
X91842019Y-68124500D01*
X91657981Y-68124500D01*
X91560797Y-68145157D01*
X91477969Y-68162763D01*
X91477963Y-68162765D01*
X91309845Y-68237615D01*
X91309842Y-68237617D01*
X91160948Y-68345794D01*
X91037803Y-68482562D01*
X91037803Y-68482563D01*
X90945790Y-68641931D01*
X90945784Y-68641945D01*
X90888916Y-68816965D01*
X90888915Y-68816969D01*
X90888915Y-68816971D01*
X90869678Y-69000000D01*
X89375500Y-69000000D01*
X89375500Y-68305252D01*
X89363867Y-68246769D01*
X89319552Y-68180448D01*
X89293088Y-68162765D01*
X89253233Y-68136134D01*
X89253231Y-68136133D01*
X89253228Y-68136132D01*
X89253227Y-68136132D01*
X89194758Y-68124501D01*
X89194748Y-68124500D01*
X87805252Y-68124500D01*
X87805251Y-68124500D01*
X87805241Y-68124501D01*
X87746772Y-68136132D01*
X87746766Y-68136134D01*
X87680451Y-68180445D01*
X87680445Y-68180451D01*
X87636134Y-68246766D01*
X87636132Y-68246772D01*
X87624501Y-68305241D01*
X87624500Y-68305253D01*
X87624500Y-69694746D01*
X87033253Y-69694746D01*
X87089050Y-69654207D01*
X87212195Y-69517440D01*
X87304214Y-69358059D01*
X87361085Y-69183029D01*
X87380322Y-69000000D01*
X87361085Y-68816971D01*
X87304214Y-68641941D01*
X87304211Y-68641936D01*
X87304209Y-68641931D01*
X87239101Y-68529163D01*
X87212195Y-68482560D01*
X87089050Y-68345793D01*
X86940161Y-68237619D01*
X86940157Y-68237617D01*
X86940154Y-68237615D01*
X86772036Y-68162765D01*
X86772034Y-68162764D01*
X86772031Y-68162763D01*
X86772030Y-68162763D01*
X86705149Y-68148547D01*
X86592019Y-68124500D01*
X86407981Y-68124500D01*
X86310797Y-68145157D01*
X86227969Y-68162763D01*
X86227963Y-68162765D01*
X86059845Y-68237615D01*
X86059842Y-68237617D01*
X85910948Y-68345794D01*
X85787803Y-68482562D01*
X85787803Y-68482563D01*
X85695790Y-68641931D01*
X85695784Y-68641945D01*
X85638916Y-68816965D01*
X85638915Y-68816969D01*
X85638915Y-68816971D01*
X85619678Y-69000000D01*
X59875500Y-69000000D01*
X59875500Y-68305252D01*
X59863867Y-68246769D01*
X59819552Y-68180448D01*
X59793088Y-68162765D01*
X59753233Y-68136134D01*
X59753231Y-68136133D01*
X59753228Y-68136132D01*
X59753227Y-68136132D01*
X59694758Y-68124501D01*
X59694748Y-68124500D01*
X58305252Y-68124500D01*
X58305251Y-68124500D01*
X58305241Y-68124501D01*
X58246772Y-68136132D01*
X58246766Y-68136134D01*
X58180451Y-68180445D01*
X58180445Y-68180451D01*
X58136134Y-68246766D01*
X58136132Y-68246772D01*
X58124501Y-68305241D01*
X58124500Y-68305253D01*
X58124500Y-69694746D01*
X57533253Y-69694746D01*
X57589050Y-69654207D01*
X57712195Y-69517440D01*
X57804214Y-69358059D01*
X57861085Y-69183029D01*
X57880322Y-69000000D01*
X57861085Y-68816971D01*
X57804214Y-68641941D01*
X57804211Y-68641936D01*
X57804209Y-68641931D01*
X57739101Y-68529163D01*
X57712195Y-68482560D01*
X57589050Y-68345793D01*
X57440161Y-68237619D01*
X57440157Y-68237617D01*
X57440154Y-68237615D01*
X57272036Y-68162765D01*
X57272034Y-68162764D01*
X57272031Y-68162763D01*
X57272030Y-68162763D01*
X57205149Y-68148547D01*
X57092019Y-68124500D01*
X56907981Y-68124500D01*
X56810797Y-68145157D01*
X56727969Y-68162763D01*
X56727963Y-68162765D01*
X56559845Y-68237615D01*
X56559842Y-68237617D01*
X56410948Y-68345794D01*
X56287803Y-68482562D01*
X56287803Y-68482563D01*
X56195790Y-68641931D01*
X56195784Y-68641945D01*
X56138916Y-68816965D01*
X56138915Y-68816969D01*
X56138915Y-68816971D01*
X56119678Y-69000000D01*
X50138827Y-69000000D01*
X50105733Y-68938085D01*
X50104536Y-68935690D01*
X50072207Y-68866359D01*
X50067194Y-68853259D01*
X50038400Y-68758339D01*
X50020012Y-68689710D01*
X50017118Y-68673804D01*
X50004482Y-68545519D01*
X50000687Y-68502140D01*
X50000500Y-68497840D01*
X50000500Y-63790003D01*
X51129437Y-63790003D01*
X51149649Y-64021042D01*
X51149650Y-64021049D01*
X51149651Y-64021050D01*
X51209680Y-64245079D01*
X51307699Y-64455282D01*
X51440730Y-64645269D01*
X51604731Y-64809270D01*
X51794718Y-64942301D01*
X52004921Y-65040320D01*
X52228950Y-65100349D01*
X52228954Y-65100349D01*
X52228957Y-65100350D01*
X52459997Y-65120563D01*
X52460000Y-65120563D01*
X52460003Y-65120563D01*
X52691042Y-65100350D01*
X52691043Y-65100349D01*
X52691050Y-65100349D01*
X52915079Y-65040320D01*
X53125282Y-64942301D01*
X53315269Y-64809270D01*
X53479270Y-64645269D01*
X53612301Y-64455282D01*
X53710320Y-64245079D01*
X53770349Y-64021050D01*
X53790563Y-63790003D01*
X56209437Y-63790003D01*
X56229649Y-64021042D01*
X56229650Y-64021049D01*
X56229651Y-64021050D01*
X56289680Y-64245079D01*
X56387699Y-64455282D01*
X56520730Y-64645269D01*
X56684731Y-64809270D01*
X56874718Y-64942301D01*
X57084921Y-65040320D01*
X57308950Y-65100349D01*
X57308954Y-65100349D01*
X57308957Y-65100350D01*
X57539997Y-65120563D01*
X57540000Y-65120563D01*
X57540003Y-65120563D01*
X57771042Y-65100350D01*
X57771043Y-65100349D01*
X57771050Y-65100349D01*
X57995079Y-65040320D01*
X58205282Y-64942301D01*
X58395269Y-64809270D01*
X58559270Y-64645269D01*
X58692301Y-64455282D01*
X58790320Y-64245079D01*
X58850349Y-64021050D01*
X58870563Y-63790000D01*
X58850349Y-63558950D01*
X58790320Y-63334921D01*
X58692301Y-63124719D01*
X58559270Y-62934731D01*
X58395269Y-62770730D01*
X58395265Y-62770727D01*
X58395264Y-62770726D01*
X58289865Y-62696925D01*
X58205282Y-62637699D01*
X57995079Y-62539680D01*
X57771050Y-62479651D01*
X57771049Y-62479650D01*
X57771042Y-62479649D01*
X57540003Y-62459437D01*
X57539997Y-62459437D01*
X57308957Y-62479649D01*
X57308950Y-62479651D01*
X57084921Y-62539680D01*
X56986903Y-62585386D01*
X56874720Y-62637698D01*
X56684735Y-62770726D01*
X56520726Y-62934735D01*
X56387698Y-63124720D01*
X56289680Y-63334922D01*
X56229649Y-63558957D01*
X56209437Y-63789996D01*
X56209437Y-63790003D01*
X53790563Y-63790003D01*
X53790563Y-63790000D01*
X53770349Y-63558950D01*
X53710320Y-63334921D01*
X53612301Y-63124719D01*
X53479270Y-62934731D01*
X53315269Y-62770730D01*
X53315265Y-62770727D01*
X53315264Y-62770726D01*
X53209865Y-62696925D01*
X53125282Y-62637699D01*
X52915079Y-62539680D01*
X52691050Y-62479651D01*
X52691049Y-62479650D01*
X52691042Y-62479649D01*
X52460003Y-62459437D01*
X52459997Y-62459437D01*
X52228957Y-62479649D01*
X52228950Y-62479651D01*
X52004921Y-62539680D01*
X51906903Y-62585386D01*
X51794720Y-62637698D01*
X51604735Y-62770726D01*
X51440726Y-62934735D01*
X51307698Y-63124720D01*
X51209680Y-63334922D01*
X51149649Y-63558957D01*
X51129437Y-63789996D01*
X51129437Y-63790003D01*
X50000500Y-63790003D01*
X50000500Y-61250003D01*
X53769819Y-61250003D01*
X53788506Y-61463611D01*
X53788507Y-61463618D01*
X53788508Y-61463619D01*
X53844008Y-61670747D01*
X53930461Y-61856146D01*
X53934632Y-61865091D01*
X53934632Y-61865092D01*
X54019977Y-61986976D01*
X54057627Y-62040745D01*
X54209255Y-62192373D01*
X54209258Y-62192375D01*
X54209259Y-62192376D01*
X54384907Y-62315367D01*
X54384908Y-62315367D01*
X54384909Y-62315368D01*
X54579253Y-62405992D01*
X54786381Y-62461492D01*
X54786385Y-62461492D01*
X54786388Y-62461493D01*
X54999997Y-62480181D01*
X55000000Y-62480181D01*
X55000003Y-62480181D01*
X55213611Y-62461493D01*
X55213612Y-62461492D01*
X55213619Y-62461492D01*
X55420747Y-62405992D01*
X55615091Y-62315368D01*
X55790745Y-62192373D01*
X55942373Y-62040745D01*
X56065368Y-61865091D01*
X56155992Y-61670747D01*
X56211492Y-61463619D01*
X56212436Y-61452838D01*
X56230181Y-61250003D01*
X56230181Y-61249996D01*
X56221433Y-61150000D01*
X78494318Y-61150000D01*
X78514955Y-61306758D01*
X78514957Y-61306766D01*
X78575462Y-61452838D01*
X78575462Y-61452839D01*
X78611650Y-61500000D01*
X78671718Y-61578282D01*
X78797159Y-61674536D01*
X78797160Y-61674536D01*
X78797161Y-61674537D01*
X78943233Y-61735042D01*
X78943238Y-61735044D01*
X79060809Y-61750522D01*
X79099999Y-61755682D01*
X79100000Y-61755682D01*
X79100001Y-61755682D01*
X79131352Y-61751554D01*
X79256762Y-61735044D01*
X79402841Y-61674536D01*
X79528282Y-61578282D01*
X79624536Y-61452841D01*
X79685044Y-61306762D01*
X79705682Y-61150000D01*
X79685044Y-60993238D01*
X79624537Y-60847161D01*
X79624537Y-60847160D01*
X79528281Y-60721717D01*
X79464232Y-60672570D01*
X79429577Y-60622145D01*
X79425500Y-60594028D01*
X79425500Y-58075834D01*
X79444407Y-58017643D01*
X79454496Y-58005830D01*
X80355830Y-57104496D01*
X80410347Y-57076719D01*
X80425834Y-57075500D01*
X99603626Y-57075500D01*
X99607926Y-57075687D01*
X99648807Y-57079264D01*
X99688452Y-57068640D01*
X99692650Y-57067710D01*
X99733045Y-57060588D01*
X99734345Y-57059838D01*
X99758236Y-57049942D01*
X99758464Y-57049880D01*
X99759684Y-57049554D01*
X99793303Y-57026012D01*
X99796911Y-57023714D01*
X99832455Y-57003194D01*
X99858838Y-56971750D01*
X99861726Y-56968598D01*
X101051824Y-55778500D01*
X101106339Y-55750725D01*
X101166771Y-55760296D01*
X101168493Y-55761195D01*
X101176046Y-55765232D01*
X101239743Y-55784554D01*
X101374065Y-55825300D01*
X101374070Y-55825301D01*
X101579997Y-55845583D01*
X101580000Y-55845583D01*
X101580003Y-55845583D01*
X101785929Y-55825301D01*
X101785934Y-55825300D01*
X101983954Y-55765232D01*
X102166450Y-55667685D01*
X102326410Y-55536410D01*
X102457685Y-55376450D01*
X102555232Y-55193954D01*
X102615300Y-54995934D01*
X102615301Y-54995929D01*
X102635583Y-54790003D01*
X103064417Y-54790003D01*
X103084698Y-54995929D01*
X103084699Y-54995934D01*
X103144768Y-55193954D01*
X103242316Y-55376452D01*
X103287867Y-55431956D01*
X103373590Y-55536410D01*
X103373595Y-55536414D01*
X103533547Y-55667683D01*
X103533548Y-55667683D01*
X103533550Y-55667685D01*
X103716046Y-55765232D01*
X103853997Y-55807078D01*
X103914065Y-55825300D01*
X103914070Y-55825301D01*
X104119997Y-55845583D01*
X104120000Y-55845583D01*
X104120003Y-55845583D01*
X104325929Y-55825301D01*
X104325934Y-55825300D01*
X104523954Y-55765232D01*
X104706450Y-55667685D01*
X104866410Y-55536410D01*
X104997685Y-55376450D01*
X105095232Y-55193954D01*
X105155300Y-54995934D01*
X105155301Y-54995929D01*
X105175583Y-54790003D01*
X105175583Y-54789996D01*
X105155301Y-54584070D01*
X105155300Y-54584065D01*
X105137078Y-54523997D01*
X105095232Y-54386046D01*
X104997685Y-54203550D01*
X104866410Y-54043590D01*
X104716123Y-53920253D01*
X104706452Y-53912316D01*
X104523954Y-53814768D01*
X104325934Y-53754699D01*
X104325929Y-53754698D01*
X104120003Y-53734417D01*
X104119997Y-53734417D01*
X103914070Y-53754698D01*
X103914065Y-53754699D01*
X103716045Y-53814768D01*
X103533547Y-53912316D01*
X103373595Y-54043585D01*
X103373585Y-54043595D01*
X103242316Y-54203547D01*
X103144768Y-54386045D01*
X103084699Y-54584065D01*
X103084698Y-54584070D01*
X103064417Y-54789996D01*
X103064417Y-54790003D01*
X102635583Y-54790003D01*
X102635583Y-54789996D01*
X102615301Y-54584070D01*
X102615300Y-54584065D01*
X102597078Y-54523997D01*
X102555232Y-54386046D01*
X102457685Y-54203550D01*
X102326410Y-54043590D01*
X102176123Y-53920253D01*
X102166452Y-53912316D01*
X101983954Y-53814768D01*
X101785934Y-53754699D01*
X101785929Y-53754698D01*
X101580003Y-53734417D01*
X101579997Y-53734417D01*
X101374070Y-53754698D01*
X101374065Y-53754699D01*
X101176045Y-53814768D01*
X100993547Y-53912316D01*
X100833595Y-54043585D01*
X100833585Y-54043595D01*
X100702316Y-54203547D01*
X100604768Y-54386045D01*
X100544699Y-54584065D01*
X100544698Y-54584070D01*
X100524417Y-54789996D01*
X100524417Y-54790003D01*
X100544698Y-54995929D01*
X100544699Y-54995934D01*
X100590787Y-55147865D01*
X100604768Y-55193954D01*
X100608802Y-55201501D01*
X100619560Y-55261732D01*
X100592860Y-55316785D01*
X100591497Y-55318175D01*
X99514170Y-56395504D01*
X99459653Y-56423281D01*
X99444166Y-56424500D01*
X80266374Y-56424500D01*
X80262073Y-56424312D01*
X80221193Y-56420736D01*
X80221187Y-56420736D01*
X80181564Y-56431353D01*
X80177349Y-56432287D01*
X80136960Y-56439410D01*
X80136948Y-56439414D01*
X80135640Y-56440170D01*
X80111786Y-56450051D01*
X80110324Y-56450442D01*
X80110316Y-56450446D01*
X80076716Y-56473972D01*
X80073080Y-56476288D01*
X80064875Y-56481025D01*
X80037545Y-56496805D01*
X80011181Y-56528224D01*
X80008263Y-56531408D01*
X78881413Y-57658259D01*
X78878229Y-57661176D01*
X78846807Y-57687542D01*
X78846806Y-57687544D01*
X78826292Y-57723075D01*
X78823972Y-57726716D01*
X78800446Y-57760316D01*
X78800442Y-57760324D01*
X78800051Y-57761786D01*
X78790170Y-57785640D01*
X78789414Y-57786948D01*
X78789410Y-57786960D01*
X78782287Y-57827349D01*
X78781353Y-57831564D01*
X78770736Y-57871187D01*
X78770736Y-57871193D01*
X78774312Y-57912072D01*
X78774500Y-57916373D01*
X78774500Y-60594028D01*
X78755593Y-60652219D01*
X78735768Y-60672570D01*
X78671718Y-60721717D01*
X78575462Y-60847160D01*
X78575462Y-60847161D01*
X78514957Y-60993233D01*
X78514955Y-60993241D01*
X78494318Y-61149999D01*
X78494318Y-61150000D01*
X56221433Y-61150000D01*
X56211493Y-61036388D01*
X56211492Y-61036385D01*
X56211492Y-61036381D01*
X56155992Y-60829253D01*
X56142970Y-60801329D01*
X56065373Y-60634919D01*
X56065369Y-60634912D01*
X56056429Y-60622145D01*
X55942373Y-60459255D01*
X55790745Y-60307627D01*
X55790741Y-60307624D01*
X55790740Y-60307623D01*
X55615092Y-60184632D01*
X55550309Y-60154424D01*
X55420747Y-60094008D01*
X55213619Y-60038508D01*
X55213618Y-60038507D01*
X55213611Y-60038506D01*
X55000003Y-60019819D01*
X54999997Y-60019819D01*
X54786388Y-60038506D01*
X54579249Y-60094009D01*
X54384919Y-60184626D01*
X54384912Y-60184630D01*
X54209259Y-60307623D01*
X54057623Y-60459259D01*
X53934630Y-60634912D01*
X53934626Y-60634919D01*
X53844009Y-60829249D01*
X53788506Y-61036388D01*
X53769819Y-61249996D01*
X53769819Y-61250003D01*
X50000500Y-61250003D01*
X50000500Y-58710003D01*
X51129437Y-58710003D01*
X51149649Y-58941042D01*
X51149650Y-58941049D01*
X51149651Y-58941050D01*
X51209680Y-59165079D01*
X51307699Y-59375282D01*
X51440730Y-59565269D01*
X51604731Y-59729270D01*
X51794718Y-59862301D01*
X52004921Y-59960320D01*
X52228950Y-60020349D01*
X52228954Y-60020349D01*
X52228957Y-60020350D01*
X52459997Y-60040563D01*
X52460000Y-60040563D01*
X52460003Y-60040563D01*
X52691042Y-60020350D01*
X52691043Y-60020349D01*
X52691050Y-60020349D01*
X52915079Y-59960320D01*
X53125282Y-59862301D01*
X53315269Y-59729270D01*
X53479270Y-59565269D01*
X53612301Y-59375282D01*
X53710320Y-59165079D01*
X53770349Y-58941050D01*
X53790563Y-58710003D01*
X56209437Y-58710003D01*
X56229649Y-58941042D01*
X56229650Y-58941049D01*
X56229651Y-58941050D01*
X56289680Y-59165079D01*
X56387699Y-59375282D01*
X56520730Y-59565269D01*
X56684731Y-59729270D01*
X56874718Y-59862301D01*
X57084921Y-59960320D01*
X57308950Y-60020349D01*
X57308954Y-60020349D01*
X57308957Y-60020350D01*
X57539997Y-60040563D01*
X57540000Y-60040563D01*
X57540003Y-60040563D01*
X57771042Y-60020350D01*
X57771043Y-60020349D01*
X57771050Y-60020349D01*
X57995079Y-59960320D01*
X58205282Y-59862301D01*
X58395269Y-59729270D01*
X58559270Y-59565269D01*
X58692301Y-59375282D01*
X58790320Y-59165079D01*
X58850349Y-58941050D01*
X58870563Y-58710000D01*
X58850349Y-58478950D01*
X58790320Y-58254921D01*
X58692301Y-58044719D01*
X58559270Y-57854731D01*
X58395269Y-57690730D01*
X58395265Y-57690727D01*
X58395264Y-57690726D01*
X58279225Y-57609475D01*
X58205282Y-57557699D01*
X57995079Y-57459680D01*
X57771050Y-57399651D01*
X57771049Y-57399650D01*
X57771042Y-57399649D01*
X57540003Y-57379437D01*
X57539997Y-57379437D01*
X57308957Y-57399649D01*
X57308950Y-57399651D01*
X57084921Y-57459680D01*
X56997380Y-57500501D01*
X56874720Y-57557698D01*
X56684735Y-57690726D01*
X56520726Y-57854735D01*
X56387698Y-58044720D01*
X56289680Y-58254922D01*
X56229649Y-58478957D01*
X56209437Y-58709996D01*
X56209437Y-58710003D01*
X53790563Y-58710003D01*
X53790563Y-58710000D01*
X53770349Y-58478950D01*
X53710320Y-58254921D01*
X53612301Y-58044719D01*
X53479270Y-57854731D01*
X53315269Y-57690730D01*
X53315265Y-57690727D01*
X53315264Y-57690726D01*
X53199225Y-57609475D01*
X53125282Y-57557699D01*
X52915079Y-57459680D01*
X52691050Y-57399651D01*
X52691049Y-57399650D01*
X52691042Y-57399649D01*
X52460003Y-57379437D01*
X52459997Y-57379437D01*
X52228957Y-57399649D01*
X52228950Y-57399651D01*
X52004921Y-57459680D01*
X51917380Y-57500501D01*
X51794720Y-57557698D01*
X51604735Y-57690726D01*
X51440726Y-57854735D01*
X51307698Y-58044720D01*
X51209680Y-58254922D01*
X51149649Y-58478957D01*
X51129437Y-58709996D01*
X51129437Y-58710003D01*
X50000500Y-58710003D01*
X50000500Y-53500000D01*
X50494415Y-53500000D01*
X50514738Y-53848929D01*
X50575430Y-54193133D01*
X50575430Y-54193134D01*
X50675672Y-54527965D01*
X50675674Y-54527972D01*
X50776703Y-54762182D01*
X50814111Y-54848904D01*
X50988870Y-55151596D01*
X51197588Y-55431953D01*
X51437442Y-55686183D01*
X51705189Y-55910849D01*
X51997207Y-56102913D01*
X52309549Y-56259777D01*
X52637989Y-56379319D01*
X52637992Y-56379319D01*
X52637993Y-56379320D01*
X52978075Y-56459921D01*
X52978080Y-56459921D01*
X52978086Y-56459923D01*
X53325241Y-56500500D01*
X53325244Y-56500500D01*
X53674756Y-56500500D01*
X53674759Y-56500500D01*
X54021914Y-56459923D01*
X54021920Y-56459921D01*
X54021924Y-56459921D01*
X54248645Y-56406187D01*
X54362011Y-56379319D01*
X54690451Y-56259777D01*
X55002793Y-56102913D01*
X55294811Y-55910849D01*
X55562558Y-55686183D01*
X55587500Y-55659746D01*
X57349500Y-55659746D01*
X57349501Y-55659758D01*
X57361132Y-55718227D01*
X57361134Y-55718233D01*
X57401405Y-55778502D01*
X57405448Y-55784552D01*
X57471769Y-55828867D01*
X57516231Y-55837711D01*
X57530241Y-55840498D01*
X57530246Y-55840498D01*
X57530252Y-55840500D01*
X57530253Y-55840500D01*
X59269747Y-55840500D01*
X59269748Y-55840500D01*
X59328231Y-55828867D01*
X59394552Y-55784552D01*
X59438867Y-55718231D01*
X59450500Y-55659748D01*
X59450500Y-54790003D01*
X59884417Y-54790003D01*
X59904698Y-54995929D01*
X59904699Y-54995934D01*
X59964768Y-55193954D01*
X60062316Y-55376452D01*
X60107867Y-55431956D01*
X60193590Y-55536410D01*
X60193595Y-55536414D01*
X60353547Y-55667683D01*
X60353548Y-55667683D01*
X60353550Y-55667685D01*
X60536046Y-55765232D01*
X60673997Y-55807078D01*
X60734065Y-55825300D01*
X60734070Y-55825301D01*
X60939997Y-55845583D01*
X60940000Y-55845583D01*
X60940003Y-55845583D01*
X61145929Y-55825301D01*
X61145934Y-55825300D01*
X61343954Y-55765232D01*
X61526450Y-55667685D01*
X61686410Y-55536410D01*
X61817685Y-55376450D01*
X61915232Y-55193954D01*
X61975300Y-54995934D01*
X61975301Y-54995929D01*
X61995583Y-54790003D01*
X61995583Y-54789996D01*
X61975301Y-54584070D01*
X61975300Y-54584065D01*
X61957078Y-54523997D01*
X61915232Y-54386046D01*
X61915231Y-54386044D01*
X61911195Y-54378493D01*
X61900440Y-54318261D01*
X61927142Y-54263210D01*
X61928453Y-54261871D01*
X62468583Y-53721742D01*
X62471760Y-53718829D01*
X62503194Y-53692455D01*
X62523714Y-53656911D01*
X62526012Y-53653303D01*
X62549554Y-53619684D01*
X62549942Y-53618236D01*
X62559838Y-53594345D01*
X62560588Y-53593045D01*
X62567709Y-53552656D01*
X62568640Y-53548452D01*
X62579264Y-53508807D01*
X62575687Y-53467922D01*
X62575500Y-53463623D01*
X62575500Y-53075986D01*
X62594407Y-53017795D01*
X62643907Y-52981831D01*
X62705093Y-52981831D01*
X62737302Y-52999456D01*
X62783955Y-53037743D01*
X62893547Y-53127683D01*
X62893548Y-53127683D01*
X62893550Y-53127685D01*
X63076046Y-53225232D01*
X63213997Y-53267078D01*
X63274065Y-53285300D01*
X63274070Y-53285301D01*
X63479997Y-53305583D01*
X63480000Y-53305583D01*
X63480003Y-53305583D01*
X63685929Y-53285301D01*
X63685934Y-53285300D01*
X63687556Y-53284808D01*
X63883954Y-53225232D01*
X64066450Y-53127685D01*
X64226410Y-52996410D01*
X64248973Y-52968916D01*
X64300502Y-52935930D01*
X64361581Y-52939531D01*
X64408879Y-52978346D01*
X64424500Y-53031722D01*
X64424500Y-53344165D01*
X64405593Y-53402356D01*
X64395504Y-53414168D01*
X64008174Y-53801497D01*
X63953659Y-53829274D01*
X63893227Y-53819703D01*
X63891504Y-53818803D01*
X63883959Y-53814770D01*
X63883954Y-53814768D01*
X63685934Y-53754699D01*
X63685929Y-53754698D01*
X63480003Y-53734417D01*
X63479997Y-53734417D01*
X63274070Y-53754698D01*
X63274065Y-53754699D01*
X63076045Y-53814768D01*
X62893547Y-53912316D01*
X62733595Y-54043585D01*
X62733585Y-54043595D01*
X62602316Y-54203547D01*
X62504768Y-54386045D01*
X62444699Y-54584065D01*
X62444698Y-54584070D01*
X62424417Y-54789996D01*
X62424417Y-54790003D01*
X62444698Y-54995929D01*
X62444699Y-54995934D01*
X62504768Y-55193954D01*
X62602316Y-55376452D01*
X62647867Y-55431956D01*
X62733590Y-55536410D01*
X62733595Y-55536414D01*
X62893547Y-55667683D01*
X62893548Y-55667683D01*
X62893550Y-55667685D01*
X63076046Y-55765232D01*
X63213997Y-55807078D01*
X63274065Y-55825300D01*
X63274070Y-55825301D01*
X63479997Y-55845583D01*
X63480000Y-55845583D01*
X63480003Y-55845583D01*
X63685929Y-55825301D01*
X63685934Y-55825300D01*
X63883954Y-55765232D01*
X64066450Y-55667685D01*
X64226410Y-55536410D01*
X64357685Y-55376450D01*
X64455232Y-55193954D01*
X64515300Y-54995934D01*
X64515301Y-54995929D01*
X64535583Y-54790003D01*
X64964417Y-54790003D01*
X64984698Y-54995929D01*
X64984699Y-54995934D01*
X65044768Y-55193954D01*
X65142316Y-55376452D01*
X65187867Y-55431956D01*
X65273590Y-55536410D01*
X65273595Y-55536414D01*
X65433547Y-55667683D01*
X65433548Y-55667683D01*
X65433550Y-55667685D01*
X65616046Y-55765232D01*
X65753997Y-55807078D01*
X65814065Y-55825300D01*
X65814070Y-55825301D01*
X66019997Y-55845583D01*
X66020000Y-55845583D01*
X66020003Y-55845583D01*
X66225929Y-55825301D01*
X66225934Y-55825300D01*
X66423954Y-55765232D01*
X66606450Y-55667685D01*
X66766410Y-55536410D01*
X66897685Y-55376450D01*
X66995232Y-55193954D01*
X67055300Y-54995934D01*
X67055301Y-54995929D01*
X67075583Y-54790003D01*
X67504417Y-54790003D01*
X67524698Y-54995929D01*
X67524699Y-54995934D01*
X67584768Y-55193954D01*
X67682316Y-55376452D01*
X67727867Y-55431956D01*
X67813590Y-55536410D01*
X67813595Y-55536414D01*
X67973547Y-55667683D01*
X67973548Y-55667683D01*
X67973550Y-55667685D01*
X68156046Y-55765232D01*
X68293997Y-55807078D01*
X68354065Y-55825300D01*
X68354070Y-55825301D01*
X68559997Y-55845583D01*
X68560000Y-55845583D01*
X68560003Y-55845583D01*
X68765929Y-55825301D01*
X68765934Y-55825300D01*
X68963954Y-55765232D01*
X69146450Y-55667685D01*
X69306410Y-55536410D01*
X69437685Y-55376450D01*
X69535232Y-55193954D01*
X69595300Y-54995934D01*
X69595301Y-54995929D01*
X69615583Y-54790003D01*
X70044417Y-54790003D01*
X70064698Y-54995929D01*
X70064699Y-54995934D01*
X70124768Y-55193954D01*
X70222316Y-55376452D01*
X70267867Y-55431956D01*
X70353590Y-55536410D01*
X70353595Y-55536414D01*
X70513547Y-55667683D01*
X70513548Y-55667683D01*
X70513550Y-55667685D01*
X70696046Y-55765232D01*
X70833997Y-55807078D01*
X70894065Y-55825300D01*
X70894070Y-55825301D01*
X71099997Y-55845583D01*
X71100000Y-55845583D01*
X71100003Y-55845583D01*
X71305929Y-55825301D01*
X71305934Y-55825300D01*
X71503954Y-55765232D01*
X71686450Y-55667685D01*
X71846410Y-55536410D01*
X71977685Y-55376450D01*
X72075232Y-55193954D01*
X72135300Y-54995934D01*
X72135301Y-54995929D01*
X72155583Y-54790003D01*
X72584417Y-54790003D01*
X72604698Y-54995929D01*
X72604699Y-54995934D01*
X72664768Y-55193954D01*
X72762316Y-55376452D01*
X72807867Y-55431956D01*
X72893590Y-55536410D01*
X72893595Y-55536414D01*
X73053547Y-55667683D01*
X73053548Y-55667683D01*
X73053550Y-55667685D01*
X73236046Y-55765232D01*
X73373997Y-55807078D01*
X73434065Y-55825300D01*
X73434070Y-55825301D01*
X73639997Y-55845583D01*
X73640000Y-55845583D01*
X73640003Y-55845583D01*
X73845929Y-55825301D01*
X73845934Y-55825300D01*
X74043954Y-55765232D01*
X74226450Y-55667685D01*
X74386410Y-55536410D01*
X74517685Y-55376450D01*
X74615232Y-55193954D01*
X74675300Y-54995934D01*
X74675301Y-54995929D01*
X74695583Y-54790003D01*
X75124417Y-54790003D01*
X75144698Y-54995929D01*
X75144699Y-54995934D01*
X75204768Y-55193954D01*
X75302316Y-55376452D01*
X75347867Y-55431956D01*
X75433590Y-55536410D01*
X75433595Y-55536414D01*
X75593547Y-55667683D01*
X75593548Y-55667683D01*
X75593550Y-55667685D01*
X75776046Y-55765232D01*
X75913997Y-55807078D01*
X75974065Y-55825300D01*
X75974070Y-55825301D01*
X76179997Y-55845583D01*
X76180000Y-55845583D01*
X76180003Y-55845583D01*
X76385929Y-55825301D01*
X76385934Y-55825300D01*
X76583954Y-55765232D01*
X76766450Y-55667685D01*
X76926410Y-55536410D01*
X77057685Y-55376450D01*
X77155232Y-55193954D01*
X77215300Y-54995934D01*
X77215301Y-54995929D01*
X77235583Y-54790003D01*
X77664417Y-54790003D01*
X77684698Y-54995929D01*
X77684699Y-54995934D01*
X77744768Y-55193954D01*
X77842316Y-55376452D01*
X77887867Y-55431956D01*
X77973590Y-55536410D01*
X77973595Y-55536414D01*
X78133547Y-55667683D01*
X78133548Y-55667683D01*
X78133550Y-55667685D01*
X78316046Y-55765232D01*
X78453997Y-55807078D01*
X78514065Y-55825300D01*
X78514070Y-55825301D01*
X78719997Y-55845583D01*
X78720000Y-55845583D01*
X78720003Y-55845583D01*
X78925929Y-55825301D01*
X78925934Y-55825300D01*
X79123954Y-55765232D01*
X79306450Y-55667685D01*
X79466410Y-55536410D01*
X79597685Y-55376450D01*
X79695232Y-55193954D01*
X79755300Y-54995934D01*
X79755301Y-54995929D01*
X79775583Y-54790003D01*
X80204417Y-54790003D01*
X80224698Y-54995929D01*
X80224699Y-54995934D01*
X80284768Y-55193954D01*
X80382316Y-55376452D01*
X80427867Y-55431956D01*
X80513590Y-55536410D01*
X80513595Y-55536414D01*
X80673547Y-55667683D01*
X80673548Y-55667683D01*
X80673550Y-55667685D01*
X80856046Y-55765232D01*
X80993997Y-55807078D01*
X81054065Y-55825300D01*
X81054070Y-55825301D01*
X81259997Y-55845583D01*
X81260000Y-55845583D01*
X81260003Y-55845583D01*
X81465929Y-55825301D01*
X81465934Y-55825300D01*
X81663954Y-55765232D01*
X81846450Y-55667685D01*
X82006410Y-55536410D01*
X82137685Y-55376450D01*
X82235232Y-55193954D01*
X82295300Y-54995934D01*
X82295301Y-54995929D01*
X82315583Y-54790003D01*
X82744417Y-54790003D01*
X82764698Y-54995929D01*
X82764699Y-54995934D01*
X82824768Y-55193954D01*
X82922316Y-55376452D01*
X82967867Y-55431956D01*
X83053590Y-55536410D01*
X83053595Y-55536414D01*
X83213547Y-55667683D01*
X83213548Y-55667683D01*
X83213550Y-55667685D01*
X83396046Y-55765232D01*
X83533997Y-55807078D01*
X83594065Y-55825300D01*
X83594070Y-55825301D01*
X83799997Y-55845583D01*
X83800000Y-55845583D01*
X83800003Y-55845583D01*
X84005929Y-55825301D01*
X84005934Y-55825300D01*
X84203954Y-55765232D01*
X84386450Y-55667685D01*
X84546410Y-55536410D01*
X84677685Y-55376450D01*
X84775232Y-55193954D01*
X84835300Y-54995934D01*
X84835301Y-54995929D01*
X84855583Y-54790003D01*
X85284417Y-54790003D01*
X85304698Y-54995929D01*
X85304699Y-54995934D01*
X85364768Y-55193954D01*
X85462316Y-55376452D01*
X85507867Y-55431956D01*
X85593590Y-55536410D01*
X85593595Y-55536414D01*
X85753547Y-55667683D01*
X85753548Y-55667683D01*
X85753550Y-55667685D01*
X85936046Y-55765232D01*
X86073997Y-55807078D01*
X86134065Y-55825300D01*
X86134070Y-55825301D01*
X86339997Y-55845583D01*
X86340000Y-55845583D01*
X86340003Y-55845583D01*
X86545929Y-55825301D01*
X86545934Y-55825300D01*
X86743954Y-55765232D01*
X86926450Y-55667685D01*
X87086410Y-55536410D01*
X87217685Y-55376450D01*
X87315232Y-55193954D01*
X87375300Y-54995934D01*
X87375301Y-54995929D01*
X87395583Y-54790003D01*
X87824417Y-54790003D01*
X87844698Y-54995929D01*
X87844699Y-54995934D01*
X87904768Y-55193954D01*
X88002316Y-55376452D01*
X88047867Y-55431956D01*
X88133590Y-55536410D01*
X88133595Y-55536414D01*
X88293547Y-55667683D01*
X88293548Y-55667683D01*
X88293550Y-55667685D01*
X88476046Y-55765232D01*
X88613997Y-55807078D01*
X88674065Y-55825300D01*
X88674070Y-55825301D01*
X88879997Y-55845583D01*
X88880000Y-55845583D01*
X88880003Y-55845583D01*
X89085929Y-55825301D01*
X89085934Y-55825300D01*
X89283954Y-55765232D01*
X89466450Y-55667685D01*
X89626410Y-55536410D01*
X89757685Y-55376450D01*
X89855232Y-55193954D01*
X89915300Y-54995934D01*
X89915301Y-54995929D01*
X89935583Y-54790003D01*
X90364417Y-54790003D01*
X90384698Y-54995929D01*
X90384699Y-54995934D01*
X90444768Y-55193954D01*
X90542316Y-55376452D01*
X90587867Y-55431956D01*
X90673590Y-55536410D01*
X90673595Y-55536414D01*
X90833547Y-55667683D01*
X90833548Y-55667683D01*
X90833550Y-55667685D01*
X91016046Y-55765232D01*
X91153997Y-55807078D01*
X91214065Y-55825300D01*
X91214070Y-55825301D01*
X91419997Y-55845583D01*
X91420000Y-55845583D01*
X91420003Y-55845583D01*
X91625929Y-55825301D01*
X91625934Y-55825300D01*
X91823954Y-55765232D01*
X92006450Y-55667685D01*
X92166410Y-55536410D01*
X92297685Y-55376450D01*
X92395232Y-55193954D01*
X92455300Y-54995934D01*
X92455301Y-54995929D01*
X92475583Y-54790003D01*
X92904417Y-54790003D01*
X92924698Y-54995929D01*
X92924699Y-54995934D01*
X92984768Y-55193954D01*
X93082316Y-55376452D01*
X93127867Y-55431956D01*
X93213590Y-55536410D01*
X93213595Y-55536414D01*
X93373547Y-55667683D01*
X93373548Y-55667683D01*
X93373550Y-55667685D01*
X93556046Y-55765232D01*
X93693997Y-55807078D01*
X93754065Y-55825300D01*
X93754070Y-55825301D01*
X93959997Y-55845583D01*
X93960000Y-55845583D01*
X93960003Y-55845583D01*
X94165929Y-55825301D01*
X94165934Y-55825300D01*
X94363954Y-55765232D01*
X94546450Y-55667685D01*
X94706410Y-55536410D01*
X94837685Y-55376450D01*
X94935232Y-55193954D01*
X94995300Y-54995934D01*
X94995301Y-54995929D01*
X95015583Y-54790003D01*
X95444417Y-54790003D01*
X95464698Y-54995929D01*
X95464699Y-54995934D01*
X95524768Y-55193954D01*
X95622316Y-55376452D01*
X95667867Y-55431956D01*
X95753590Y-55536410D01*
X95753595Y-55536414D01*
X95913547Y-55667683D01*
X95913548Y-55667683D01*
X95913550Y-55667685D01*
X96096046Y-55765232D01*
X96233997Y-55807078D01*
X96294065Y-55825300D01*
X96294070Y-55825301D01*
X96499997Y-55845583D01*
X96500000Y-55845583D01*
X96500003Y-55845583D01*
X96705929Y-55825301D01*
X96705934Y-55825300D01*
X96903954Y-55765232D01*
X97086450Y-55667685D01*
X97246410Y-55536410D01*
X97377685Y-55376450D01*
X97475232Y-55193954D01*
X97535300Y-54995934D01*
X97535301Y-54995929D01*
X97555583Y-54790003D01*
X97984417Y-54790003D01*
X98004698Y-54995929D01*
X98004699Y-54995934D01*
X98064768Y-55193954D01*
X98162316Y-55376452D01*
X98207867Y-55431956D01*
X98293590Y-55536410D01*
X98293595Y-55536414D01*
X98453547Y-55667683D01*
X98453548Y-55667683D01*
X98453550Y-55667685D01*
X98636046Y-55765232D01*
X98773997Y-55807078D01*
X98834065Y-55825300D01*
X98834070Y-55825301D01*
X99039997Y-55845583D01*
X99040000Y-55845583D01*
X99040003Y-55845583D01*
X99245929Y-55825301D01*
X99245934Y-55825300D01*
X99443954Y-55765232D01*
X99626450Y-55667685D01*
X99786410Y-55536410D01*
X99917685Y-55376450D01*
X100015232Y-55193954D01*
X100075300Y-54995934D01*
X100075301Y-54995929D01*
X100095583Y-54790003D01*
X100095583Y-54789996D01*
X100075301Y-54584070D01*
X100075300Y-54584065D01*
X100057078Y-54523997D01*
X100015232Y-54386046D01*
X99917685Y-54203550D01*
X99786410Y-54043590D01*
X99636123Y-53920253D01*
X99626452Y-53912316D01*
X99443954Y-53814768D01*
X99245934Y-53754699D01*
X99245929Y-53754698D01*
X99040003Y-53734417D01*
X99039997Y-53734417D01*
X98834070Y-53754698D01*
X98834065Y-53754699D01*
X98636045Y-53814768D01*
X98453547Y-53912316D01*
X98293595Y-54043585D01*
X98293585Y-54043595D01*
X98162316Y-54203547D01*
X98064768Y-54386045D01*
X98004699Y-54584065D01*
X98004698Y-54584070D01*
X97984417Y-54789996D01*
X97984417Y-54790003D01*
X97555583Y-54790003D01*
X97555583Y-54789996D01*
X97535301Y-54584070D01*
X97535300Y-54584065D01*
X97517078Y-54523997D01*
X97475232Y-54386046D01*
X97377685Y-54203550D01*
X97246410Y-54043590D01*
X97096123Y-53920253D01*
X97086452Y-53912316D01*
X96903954Y-53814768D01*
X96705934Y-53754699D01*
X96705929Y-53754698D01*
X96500003Y-53734417D01*
X96499997Y-53734417D01*
X96294070Y-53754698D01*
X96294065Y-53754699D01*
X96096045Y-53814768D01*
X95913547Y-53912316D01*
X95753595Y-54043585D01*
X95753585Y-54043595D01*
X95622316Y-54203547D01*
X95524768Y-54386045D01*
X95464699Y-54584065D01*
X95464698Y-54584070D01*
X95444417Y-54789996D01*
X95444417Y-54790003D01*
X95015583Y-54790003D01*
X95015583Y-54789996D01*
X94995301Y-54584070D01*
X94995300Y-54584065D01*
X94977078Y-54523997D01*
X94935232Y-54386046D01*
X94837685Y-54203550D01*
X94706410Y-54043590D01*
X94556123Y-53920253D01*
X94546452Y-53912316D01*
X94363954Y-53814768D01*
X94165934Y-53754699D01*
X94165929Y-53754698D01*
X93960003Y-53734417D01*
X93959997Y-53734417D01*
X93754070Y-53754698D01*
X93754065Y-53754699D01*
X93556045Y-53814768D01*
X93373547Y-53912316D01*
X93213595Y-54043585D01*
X93213585Y-54043595D01*
X93082316Y-54203547D01*
X92984768Y-54386045D01*
X92924699Y-54584065D01*
X92924698Y-54584070D01*
X92904417Y-54789996D01*
X92904417Y-54790003D01*
X92475583Y-54790003D01*
X92475583Y-54789996D01*
X92455301Y-54584070D01*
X92455300Y-54584065D01*
X92437078Y-54523997D01*
X92395232Y-54386046D01*
X92297685Y-54203550D01*
X92166410Y-54043590D01*
X92016123Y-53920253D01*
X92006452Y-53912316D01*
X91823954Y-53814768D01*
X91625934Y-53754699D01*
X91625929Y-53754698D01*
X91420003Y-53734417D01*
X91419997Y-53734417D01*
X91214070Y-53754698D01*
X91214065Y-53754699D01*
X91016045Y-53814768D01*
X90833547Y-53912316D01*
X90673595Y-54043585D01*
X90673585Y-54043595D01*
X90542316Y-54203547D01*
X90444768Y-54386045D01*
X90384699Y-54584065D01*
X90384698Y-54584070D01*
X90364417Y-54789996D01*
X90364417Y-54790003D01*
X89935583Y-54790003D01*
X89935583Y-54789996D01*
X89915301Y-54584070D01*
X89915300Y-54584065D01*
X89897078Y-54523997D01*
X89855232Y-54386046D01*
X89757685Y-54203550D01*
X89626410Y-54043590D01*
X89476123Y-53920253D01*
X89466452Y-53912316D01*
X89283954Y-53814768D01*
X89085934Y-53754699D01*
X89085929Y-53754698D01*
X88880003Y-53734417D01*
X88879997Y-53734417D01*
X88674070Y-53754698D01*
X88674065Y-53754699D01*
X88476045Y-53814768D01*
X88293547Y-53912316D01*
X88133595Y-54043585D01*
X88133585Y-54043595D01*
X88002316Y-54203547D01*
X87904768Y-54386045D01*
X87844699Y-54584065D01*
X87844698Y-54584070D01*
X87824417Y-54789996D01*
X87824417Y-54790003D01*
X87395583Y-54790003D01*
X87395583Y-54789996D01*
X87375301Y-54584070D01*
X87375300Y-54584065D01*
X87357078Y-54523997D01*
X87315232Y-54386046D01*
X87217685Y-54203550D01*
X87086410Y-54043590D01*
X86936123Y-53920253D01*
X86926452Y-53912316D01*
X86743954Y-53814768D01*
X86545934Y-53754699D01*
X86545929Y-53754698D01*
X86340003Y-53734417D01*
X86339997Y-53734417D01*
X86134070Y-53754698D01*
X86134065Y-53754699D01*
X85936045Y-53814768D01*
X85753547Y-53912316D01*
X85593595Y-54043585D01*
X85593585Y-54043595D01*
X85462316Y-54203547D01*
X85364768Y-54386045D01*
X85304699Y-54584065D01*
X85304698Y-54584070D01*
X85284417Y-54789996D01*
X85284417Y-54790003D01*
X84855583Y-54790003D01*
X84855583Y-54789996D01*
X84835301Y-54584070D01*
X84835300Y-54584065D01*
X84817078Y-54523997D01*
X84775232Y-54386046D01*
X84677685Y-54203550D01*
X84546410Y-54043590D01*
X84396123Y-53920253D01*
X84386452Y-53912316D01*
X84203954Y-53814768D01*
X84005934Y-53754699D01*
X84005929Y-53754698D01*
X83800003Y-53734417D01*
X83799997Y-53734417D01*
X83594070Y-53754698D01*
X83594065Y-53754699D01*
X83396045Y-53814768D01*
X83213547Y-53912316D01*
X83053595Y-54043585D01*
X83053585Y-54043595D01*
X82922316Y-54203547D01*
X82824768Y-54386045D01*
X82764699Y-54584065D01*
X82764698Y-54584070D01*
X82744417Y-54789996D01*
X82744417Y-54790003D01*
X82315583Y-54790003D01*
X82315583Y-54789996D01*
X82295301Y-54584070D01*
X82295300Y-54584065D01*
X82277078Y-54523997D01*
X82235232Y-54386046D01*
X82137685Y-54203550D01*
X82006410Y-54043590D01*
X81856123Y-53920253D01*
X81846452Y-53912316D01*
X81663954Y-53814768D01*
X81465934Y-53754699D01*
X81465929Y-53754698D01*
X81260003Y-53734417D01*
X81259997Y-53734417D01*
X81054070Y-53754698D01*
X81054065Y-53754699D01*
X80856045Y-53814768D01*
X80673547Y-53912316D01*
X80513595Y-54043585D01*
X80513585Y-54043595D01*
X80382316Y-54203547D01*
X80284768Y-54386045D01*
X80224699Y-54584065D01*
X80224698Y-54584070D01*
X80204417Y-54789996D01*
X80204417Y-54790003D01*
X79775583Y-54790003D01*
X79775583Y-54789996D01*
X79755301Y-54584070D01*
X79755300Y-54584065D01*
X79737078Y-54523997D01*
X79695232Y-54386046D01*
X79597685Y-54203550D01*
X79466410Y-54043590D01*
X79316123Y-53920253D01*
X79306452Y-53912316D01*
X79123954Y-53814768D01*
X78925934Y-53754699D01*
X78925929Y-53754698D01*
X78720003Y-53734417D01*
X78719997Y-53734417D01*
X78514070Y-53754698D01*
X78514065Y-53754699D01*
X78316045Y-53814768D01*
X78133547Y-53912316D01*
X77973595Y-54043585D01*
X77973585Y-54043595D01*
X77842316Y-54203547D01*
X77744768Y-54386045D01*
X77684699Y-54584065D01*
X77684698Y-54584070D01*
X77664417Y-54789996D01*
X77664417Y-54790003D01*
X77235583Y-54790003D01*
X77235583Y-54789996D01*
X77215301Y-54584070D01*
X77215300Y-54584065D01*
X77197078Y-54523997D01*
X77155232Y-54386046D01*
X77057685Y-54203550D01*
X76926410Y-54043590D01*
X76776123Y-53920253D01*
X76766452Y-53912316D01*
X76583954Y-53814768D01*
X76385934Y-53754699D01*
X76385929Y-53754698D01*
X76180003Y-53734417D01*
X76179997Y-53734417D01*
X75974070Y-53754698D01*
X75974065Y-53754699D01*
X75776045Y-53814768D01*
X75593547Y-53912316D01*
X75433595Y-54043585D01*
X75433585Y-54043595D01*
X75302316Y-54203547D01*
X75204768Y-54386045D01*
X75144699Y-54584065D01*
X75144698Y-54584070D01*
X75124417Y-54789996D01*
X75124417Y-54790003D01*
X74695583Y-54790003D01*
X74695583Y-54789996D01*
X74675301Y-54584070D01*
X74675300Y-54584065D01*
X74657078Y-54523997D01*
X74615232Y-54386046D01*
X74517685Y-54203550D01*
X74386410Y-54043590D01*
X74236123Y-53920253D01*
X74226452Y-53912316D01*
X74043954Y-53814768D01*
X73845934Y-53754699D01*
X73845929Y-53754698D01*
X73640003Y-53734417D01*
X73639997Y-53734417D01*
X73434070Y-53754698D01*
X73434065Y-53754699D01*
X73236045Y-53814768D01*
X73053547Y-53912316D01*
X72893595Y-54043585D01*
X72893585Y-54043595D01*
X72762316Y-54203547D01*
X72664768Y-54386045D01*
X72604699Y-54584065D01*
X72604698Y-54584070D01*
X72584417Y-54789996D01*
X72584417Y-54790003D01*
X72155583Y-54790003D01*
X72155583Y-54789996D01*
X72135301Y-54584070D01*
X72135300Y-54584065D01*
X72117078Y-54523997D01*
X72075232Y-54386046D01*
X71977685Y-54203550D01*
X71846410Y-54043590D01*
X71696123Y-53920253D01*
X71686452Y-53912316D01*
X71503954Y-53814768D01*
X71305934Y-53754699D01*
X71305929Y-53754698D01*
X71100003Y-53734417D01*
X71099997Y-53734417D01*
X70894070Y-53754698D01*
X70894065Y-53754699D01*
X70696045Y-53814768D01*
X70513547Y-53912316D01*
X70353595Y-54043585D01*
X70353585Y-54043595D01*
X70222316Y-54203547D01*
X70124768Y-54386045D01*
X70064699Y-54584065D01*
X70064698Y-54584070D01*
X70044417Y-54789996D01*
X70044417Y-54790003D01*
X69615583Y-54790003D01*
X69615583Y-54789996D01*
X69595301Y-54584070D01*
X69595300Y-54584065D01*
X69577078Y-54523997D01*
X69535232Y-54386046D01*
X69437685Y-54203550D01*
X69306410Y-54043590D01*
X69156123Y-53920253D01*
X69146452Y-53912316D01*
X68963954Y-53814768D01*
X68765934Y-53754699D01*
X68765929Y-53754698D01*
X68560003Y-53734417D01*
X68559997Y-53734417D01*
X68354070Y-53754698D01*
X68354065Y-53754699D01*
X68156045Y-53814768D01*
X67973547Y-53912316D01*
X67813595Y-54043585D01*
X67813585Y-54043595D01*
X67682316Y-54203547D01*
X67584768Y-54386045D01*
X67524699Y-54584065D01*
X67524698Y-54584070D01*
X67504417Y-54789996D01*
X67504417Y-54790003D01*
X67075583Y-54790003D01*
X67075583Y-54789996D01*
X67055301Y-54584070D01*
X67055300Y-54584065D01*
X67037078Y-54523997D01*
X66995232Y-54386046D01*
X66897685Y-54203550D01*
X66766410Y-54043590D01*
X66616123Y-53920253D01*
X66606452Y-53912316D01*
X66423954Y-53814768D01*
X66225934Y-53754699D01*
X66225929Y-53754698D01*
X66020003Y-53734417D01*
X66019997Y-53734417D01*
X65814070Y-53754698D01*
X65814065Y-53754699D01*
X65616045Y-53814768D01*
X65433547Y-53912316D01*
X65273595Y-54043585D01*
X65273585Y-54043595D01*
X65142316Y-54203547D01*
X65044768Y-54386045D01*
X64984699Y-54584065D01*
X64984698Y-54584070D01*
X64964417Y-54789996D01*
X64964417Y-54790003D01*
X64535583Y-54790003D01*
X64535583Y-54789996D01*
X64515301Y-54584070D01*
X64515300Y-54584065D01*
X64498282Y-54527965D01*
X64455232Y-54386046D01*
X64451196Y-54378496D01*
X64440439Y-54318265D01*
X64467140Y-54263213D01*
X64468453Y-54261872D01*
X64968589Y-53761737D01*
X64971766Y-53758824D01*
X65003194Y-53732455D01*
X65023712Y-53696914D01*
X65026017Y-53693296D01*
X65049554Y-53659684D01*
X65049942Y-53658236D01*
X65059838Y-53634345D01*
X65060586Y-53633048D01*
X65060585Y-53633048D01*
X65060588Y-53633045D01*
X65067713Y-53592628D01*
X65068641Y-53588443D01*
X65079263Y-53548807D01*
X65075687Y-53507934D01*
X65075500Y-53503634D01*
X65075500Y-53031722D01*
X65094407Y-52973531D01*
X65143907Y-52937567D01*
X65205093Y-52937567D01*
X65251026Y-52968916D01*
X65273590Y-52996410D01*
X65278574Y-53000500D01*
X65433547Y-53127683D01*
X65433548Y-53127683D01*
X65433550Y-53127685D01*
X65616046Y-53225232D01*
X65753997Y-53267078D01*
X65814065Y-53285300D01*
X65814070Y-53285301D01*
X66019997Y-53305583D01*
X66020000Y-53305583D01*
X66020003Y-53305583D01*
X66225929Y-53285301D01*
X66225934Y-53285300D01*
X66227556Y-53284808D01*
X66423954Y-53225232D01*
X66606450Y-53127685D01*
X66766410Y-52996410D01*
X66897685Y-52836450D01*
X66995232Y-52653954D01*
X67055300Y-52455934D01*
X67055301Y-52455929D01*
X67075583Y-52250003D01*
X67075583Y-52249996D01*
X67055301Y-52044070D01*
X67055300Y-52044065D01*
X67037078Y-51983997D01*
X66995232Y-51846046D01*
X66897685Y-51663550D01*
X66887721Y-51651409D01*
X66766414Y-51503595D01*
X66766410Y-51503590D01*
X66763288Y-51501028D01*
X66730301Y-51449497D01*
X66733902Y-51388418D01*
X66772718Y-51341121D01*
X66826093Y-51325500D01*
X67753907Y-51325500D01*
X67812098Y-51344407D01*
X67848062Y-51393907D01*
X67848062Y-51455093D01*
X67816711Y-51501029D01*
X67813593Y-51503587D01*
X67813585Y-51503595D01*
X67682316Y-51663547D01*
X67584768Y-51846045D01*
X67524699Y-52044065D01*
X67524698Y-52044070D01*
X67504417Y-52249996D01*
X67504417Y-52250003D01*
X67524698Y-52455929D01*
X67524699Y-52455934D01*
X67584768Y-52653954D01*
X67682316Y-52836452D01*
X67813296Y-52996052D01*
X67813590Y-52996410D01*
X67818574Y-53000500D01*
X67973547Y-53127683D01*
X67973548Y-53127683D01*
X67973550Y-53127685D01*
X68156046Y-53225232D01*
X68293997Y-53267078D01*
X68354065Y-53285300D01*
X68354070Y-53285301D01*
X68559997Y-53305583D01*
X68560000Y-53305583D01*
X68560003Y-53305583D01*
X68765929Y-53285301D01*
X68765934Y-53285300D01*
X68767556Y-53284808D01*
X68963954Y-53225232D01*
X69146450Y-53127685D01*
X69306410Y-52996410D01*
X69437685Y-52836450D01*
X69535232Y-52653954D01*
X69595300Y-52455934D01*
X69595301Y-52455929D01*
X69615583Y-52250003D01*
X69615583Y-52249996D01*
X69595301Y-52044070D01*
X69595300Y-52044065D01*
X69577078Y-51983997D01*
X69535232Y-51846046D01*
X69437685Y-51663550D01*
X69427721Y-51651409D01*
X69306414Y-51503595D01*
X69306410Y-51503590D01*
X69303288Y-51501028D01*
X69270301Y-51449497D01*
X69273902Y-51388418D01*
X69312718Y-51341121D01*
X69366093Y-51325500D01*
X70293907Y-51325500D01*
X70352098Y-51344407D01*
X70388062Y-51393907D01*
X70388062Y-51455093D01*
X70356711Y-51501029D01*
X70353593Y-51503587D01*
X70353585Y-51503595D01*
X70222316Y-51663547D01*
X70124768Y-51846045D01*
X70064699Y-52044065D01*
X70064698Y-52044070D01*
X70044417Y-52249996D01*
X70044417Y-52250003D01*
X70064698Y-52455929D01*
X70064699Y-52455934D01*
X70124768Y-52653954D01*
X70222316Y-52836452D01*
X70353296Y-52996052D01*
X70353590Y-52996410D01*
X70358574Y-53000500D01*
X70513547Y-53127683D01*
X70513548Y-53127683D01*
X70513550Y-53127685D01*
X70696046Y-53225232D01*
X70833997Y-53267078D01*
X70894065Y-53285300D01*
X70894070Y-53285301D01*
X71099997Y-53305583D01*
X71100000Y-53305583D01*
X71100003Y-53305583D01*
X71305929Y-53285301D01*
X71305934Y-53285300D01*
X71307556Y-53284808D01*
X71503954Y-53225232D01*
X71686450Y-53127685D01*
X71846410Y-52996410D01*
X71977685Y-52836450D01*
X72075232Y-52653954D01*
X72135300Y-52455934D01*
X72135301Y-52455929D01*
X72155583Y-52250003D01*
X72155583Y-52249996D01*
X72135301Y-52044070D01*
X72135300Y-52044065D01*
X72117078Y-51983997D01*
X72075232Y-51846046D01*
X71977685Y-51663550D01*
X71967721Y-51651409D01*
X71846414Y-51503595D01*
X71846410Y-51503590D01*
X71843288Y-51501028D01*
X71810301Y-51449497D01*
X71813902Y-51388418D01*
X71852718Y-51341121D01*
X71906093Y-51325500D01*
X72833907Y-51325500D01*
X72892098Y-51344407D01*
X72928062Y-51393907D01*
X72928062Y-51455093D01*
X72896711Y-51501029D01*
X72893593Y-51503587D01*
X72893585Y-51503595D01*
X72762316Y-51663547D01*
X72664768Y-51846045D01*
X72604699Y-52044065D01*
X72604698Y-52044070D01*
X72584417Y-52249996D01*
X72584417Y-52250003D01*
X72604698Y-52455929D01*
X72604699Y-52455934D01*
X72664768Y-52653954D01*
X72762316Y-52836452D01*
X72893296Y-52996052D01*
X72893590Y-52996410D01*
X72898574Y-53000500D01*
X73053547Y-53127683D01*
X73053548Y-53127683D01*
X73053550Y-53127685D01*
X73236046Y-53225232D01*
X73373997Y-53267078D01*
X73434065Y-53285300D01*
X73434070Y-53285301D01*
X73639997Y-53305583D01*
X73640000Y-53305583D01*
X73640003Y-53305583D01*
X73845929Y-53285301D01*
X73845934Y-53285300D01*
X73847556Y-53284808D01*
X74043954Y-53225232D01*
X74226450Y-53127685D01*
X74386410Y-52996410D01*
X74517685Y-52836450D01*
X74615232Y-52653954D01*
X74675300Y-52455934D01*
X74675301Y-52455929D01*
X74695583Y-52250003D01*
X74695583Y-52249996D01*
X74675301Y-52044070D01*
X74675300Y-52044065D01*
X74657078Y-51983997D01*
X74615232Y-51846046D01*
X74517685Y-51663550D01*
X74507721Y-51651409D01*
X74386414Y-51503595D01*
X74386410Y-51503590D01*
X74383288Y-51501028D01*
X74350301Y-51449497D01*
X74353902Y-51388418D01*
X74392718Y-51341121D01*
X74446093Y-51325500D01*
X75373907Y-51325500D01*
X75432098Y-51344407D01*
X75468062Y-51393907D01*
X75468062Y-51455093D01*
X75436711Y-51501029D01*
X75433593Y-51503587D01*
X75433585Y-51503595D01*
X75302316Y-51663547D01*
X75204768Y-51846045D01*
X75144699Y-52044065D01*
X75144698Y-52044070D01*
X75124417Y-52249996D01*
X75124417Y-52250003D01*
X75144698Y-52455929D01*
X75144699Y-52455934D01*
X75204768Y-52653954D01*
X75302316Y-52836452D01*
X75433296Y-52996052D01*
X75433590Y-52996410D01*
X75438574Y-53000500D01*
X75593547Y-53127683D01*
X75593548Y-53127683D01*
X75593550Y-53127685D01*
X75776046Y-53225232D01*
X75913997Y-53267078D01*
X75974065Y-53285300D01*
X75974070Y-53285301D01*
X76179997Y-53305583D01*
X76180000Y-53305583D01*
X76180003Y-53305583D01*
X76385929Y-53285301D01*
X76385934Y-53285300D01*
X76387556Y-53284808D01*
X76583954Y-53225232D01*
X76766450Y-53127685D01*
X76926410Y-52996410D01*
X77057685Y-52836450D01*
X77155232Y-52653954D01*
X77215300Y-52455934D01*
X77215301Y-52455929D01*
X77235583Y-52250003D01*
X77235583Y-52249996D01*
X77215301Y-52044070D01*
X77215300Y-52044065D01*
X77197078Y-51983997D01*
X77155232Y-51846046D01*
X77057685Y-51663550D01*
X77047721Y-51651409D01*
X76926414Y-51503595D01*
X76926410Y-51503590D01*
X76923288Y-51501028D01*
X76890301Y-51449497D01*
X76893902Y-51388418D01*
X76932718Y-51341121D01*
X76986093Y-51325500D01*
X77913907Y-51325500D01*
X77972098Y-51344407D01*
X78008062Y-51393907D01*
X78008062Y-51455093D01*
X77976711Y-51501029D01*
X77973593Y-51503587D01*
X77973585Y-51503595D01*
X77842316Y-51663547D01*
X77744768Y-51846045D01*
X77684699Y-52044065D01*
X77684698Y-52044070D01*
X77664417Y-52249996D01*
X77664417Y-52250003D01*
X77684698Y-52455929D01*
X77684699Y-52455934D01*
X77744768Y-52653954D01*
X77842316Y-52836452D01*
X77973296Y-52996052D01*
X77973590Y-52996410D01*
X77978574Y-53000500D01*
X78133547Y-53127683D01*
X78133548Y-53127683D01*
X78133550Y-53127685D01*
X78316046Y-53225232D01*
X78453997Y-53267078D01*
X78514065Y-53285300D01*
X78514070Y-53285301D01*
X78719997Y-53305583D01*
X78720000Y-53305583D01*
X78720003Y-53305583D01*
X78925929Y-53285301D01*
X78925934Y-53285300D01*
X78927556Y-53284808D01*
X79123954Y-53225232D01*
X79306450Y-53127685D01*
X79466410Y-52996410D01*
X79597685Y-52836450D01*
X79695232Y-52653954D01*
X79755300Y-52455934D01*
X79755301Y-52455929D01*
X79775583Y-52250003D01*
X79775583Y-52249996D01*
X79755301Y-52044070D01*
X79755300Y-52044065D01*
X79737078Y-51983997D01*
X79695232Y-51846046D01*
X79597685Y-51663550D01*
X79587721Y-51651409D01*
X79466414Y-51503595D01*
X79466410Y-51503590D01*
X79463288Y-51501028D01*
X79430301Y-51449497D01*
X79433902Y-51388418D01*
X79472718Y-51341121D01*
X79526093Y-51325500D01*
X80453907Y-51325500D01*
X80512098Y-51344407D01*
X80548062Y-51393907D01*
X80548062Y-51455093D01*
X80516711Y-51501029D01*
X80513593Y-51503587D01*
X80513585Y-51503595D01*
X80382316Y-51663547D01*
X80284768Y-51846045D01*
X80224699Y-52044065D01*
X80224698Y-52044070D01*
X80204417Y-52249996D01*
X80204417Y-52250003D01*
X80224698Y-52455929D01*
X80224699Y-52455934D01*
X80284768Y-52653954D01*
X80382316Y-52836452D01*
X80513296Y-52996052D01*
X80513590Y-52996410D01*
X80518574Y-53000500D01*
X80673547Y-53127683D01*
X80673548Y-53127683D01*
X80673550Y-53127685D01*
X80856046Y-53225232D01*
X80993997Y-53267078D01*
X81054065Y-53285300D01*
X81054070Y-53285301D01*
X81259997Y-53305583D01*
X81260000Y-53305583D01*
X81260003Y-53305583D01*
X81465929Y-53285301D01*
X81465934Y-53285300D01*
X81467556Y-53284808D01*
X81663954Y-53225232D01*
X81846450Y-53127685D01*
X82006410Y-52996410D01*
X82137685Y-52836450D01*
X82235232Y-52653954D01*
X82295300Y-52455934D01*
X82295301Y-52455929D01*
X82315583Y-52250003D01*
X82315583Y-52249996D01*
X82295301Y-52044070D01*
X82295300Y-52044065D01*
X82277078Y-51983997D01*
X82235232Y-51846046D01*
X82137685Y-51663550D01*
X82127721Y-51651409D01*
X82006414Y-51503595D01*
X82006410Y-51503590D01*
X82003288Y-51501028D01*
X81970301Y-51449497D01*
X81973902Y-51388418D01*
X82012718Y-51341121D01*
X82066093Y-51325500D01*
X82993907Y-51325500D01*
X83052098Y-51344407D01*
X83088062Y-51393907D01*
X83088062Y-51455093D01*
X83056711Y-51501029D01*
X83053593Y-51503587D01*
X83053585Y-51503595D01*
X82922316Y-51663547D01*
X82824768Y-51846045D01*
X82764699Y-52044065D01*
X82764698Y-52044070D01*
X82744417Y-52249996D01*
X82744417Y-52250003D01*
X82764698Y-52455929D01*
X82764699Y-52455934D01*
X82824768Y-52653954D01*
X82922316Y-52836452D01*
X83053296Y-52996052D01*
X83053590Y-52996410D01*
X83058574Y-53000500D01*
X83213547Y-53127683D01*
X83213548Y-53127683D01*
X83213550Y-53127685D01*
X83396046Y-53225232D01*
X83533997Y-53267078D01*
X83594065Y-53285300D01*
X83594070Y-53285301D01*
X83799997Y-53305583D01*
X83800000Y-53305583D01*
X83800003Y-53305583D01*
X84005929Y-53285301D01*
X84005934Y-53285300D01*
X84007556Y-53284808D01*
X84203954Y-53225232D01*
X84386450Y-53127685D01*
X84546410Y-52996410D01*
X84677685Y-52836450D01*
X84775232Y-52653954D01*
X84835300Y-52455934D01*
X84835301Y-52455929D01*
X84855583Y-52250003D01*
X84855583Y-52249996D01*
X84835301Y-52044070D01*
X84835300Y-52044065D01*
X84817078Y-51983997D01*
X84775232Y-51846046D01*
X84677685Y-51663550D01*
X84667721Y-51651409D01*
X84546414Y-51503595D01*
X84546410Y-51503590D01*
X84543288Y-51501028D01*
X84510301Y-51449497D01*
X84513902Y-51388418D01*
X84552718Y-51341121D01*
X84606093Y-51325500D01*
X85533907Y-51325500D01*
X85592098Y-51344407D01*
X85628062Y-51393907D01*
X85628062Y-51455093D01*
X85596711Y-51501029D01*
X85593593Y-51503587D01*
X85593585Y-51503595D01*
X85462316Y-51663547D01*
X85364768Y-51846045D01*
X85304699Y-52044065D01*
X85304698Y-52044070D01*
X85284417Y-52249996D01*
X85284417Y-52250003D01*
X85304698Y-52455929D01*
X85304699Y-52455934D01*
X85364768Y-52653954D01*
X85462316Y-52836452D01*
X85593296Y-52996052D01*
X85593590Y-52996410D01*
X85598574Y-53000500D01*
X85753547Y-53127683D01*
X85753548Y-53127683D01*
X85753550Y-53127685D01*
X85936046Y-53225232D01*
X86073997Y-53267078D01*
X86134065Y-53285300D01*
X86134070Y-53285301D01*
X86339997Y-53305583D01*
X86340000Y-53305583D01*
X86340003Y-53305583D01*
X86545929Y-53285301D01*
X86545934Y-53285300D01*
X86547556Y-53284808D01*
X86743954Y-53225232D01*
X86926450Y-53127685D01*
X87086410Y-52996410D01*
X87217685Y-52836450D01*
X87315232Y-52653954D01*
X87375300Y-52455934D01*
X87375301Y-52455929D01*
X87395583Y-52250003D01*
X87395583Y-52249996D01*
X87375301Y-52044070D01*
X87375300Y-52044065D01*
X87357078Y-51983997D01*
X87315232Y-51846046D01*
X87217685Y-51663550D01*
X87207721Y-51651409D01*
X87086414Y-51503595D01*
X87086410Y-51503590D01*
X87083288Y-51501028D01*
X87050301Y-51449497D01*
X87053902Y-51388418D01*
X87092718Y-51341121D01*
X87146093Y-51325500D01*
X88073907Y-51325500D01*
X88132098Y-51344407D01*
X88168062Y-51393907D01*
X88168062Y-51455093D01*
X88136711Y-51501029D01*
X88133593Y-51503587D01*
X88133585Y-51503595D01*
X88002316Y-51663547D01*
X87904768Y-51846045D01*
X87844699Y-52044065D01*
X87844698Y-52044070D01*
X87824417Y-52249996D01*
X87824417Y-52250003D01*
X87844698Y-52455929D01*
X87844699Y-52455934D01*
X87904768Y-52653954D01*
X88002316Y-52836452D01*
X88133296Y-52996052D01*
X88133590Y-52996410D01*
X88138574Y-53000500D01*
X88293547Y-53127683D01*
X88293548Y-53127683D01*
X88293550Y-53127685D01*
X88476046Y-53225232D01*
X88613997Y-53267078D01*
X88674065Y-53285300D01*
X88674070Y-53285301D01*
X88879997Y-53305583D01*
X88880000Y-53305583D01*
X88880003Y-53305583D01*
X89085929Y-53285301D01*
X89085934Y-53285300D01*
X89087556Y-53284808D01*
X89283954Y-53225232D01*
X89466450Y-53127685D01*
X89626410Y-52996410D01*
X89757685Y-52836450D01*
X89855232Y-52653954D01*
X89915300Y-52455934D01*
X89915301Y-52455929D01*
X89935583Y-52250003D01*
X89935583Y-52249996D01*
X89915301Y-52044070D01*
X89915300Y-52044065D01*
X89897078Y-51983997D01*
X89855232Y-51846046D01*
X89757685Y-51663550D01*
X89747721Y-51651409D01*
X89626414Y-51503595D01*
X89626410Y-51503590D01*
X89623288Y-51501028D01*
X89590301Y-51449497D01*
X89593902Y-51388418D01*
X89632718Y-51341121D01*
X89686093Y-51325500D01*
X90613907Y-51325500D01*
X90672098Y-51344407D01*
X90708062Y-51393907D01*
X90708062Y-51455093D01*
X90676711Y-51501029D01*
X90673593Y-51503587D01*
X90673585Y-51503595D01*
X90542316Y-51663547D01*
X90444768Y-51846045D01*
X90384699Y-52044065D01*
X90384698Y-52044070D01*
X90364417Y-52249996D01*
X90364417Y-52250003D01*
X90384698Y-52455929D01*
X90384699Y-52455934D01*
X90444768Y-52653954D01*
X90542316Y-52836452D01*
X90673296Y-52996052D01*
X90673590Y-52996410D01*
X90678574Y-53000500D01*
X90833547Y-53127683D01*
X90833548Y-53127683D01*
X90833550Y-53127685D01*
X91016046Y-53225232D01*
X91153997Y-53267078D01*
X91214065Y-53285300D01*
X91214070Y-53285301D01*
X91419997Y-53305583D01*
X91420000Y-53305583D01*
X91420003Y-53305583D01*
X91625929Y-53285301D01*
X91625934Y-53285300D01*
X91627556Y-53284808D01*
X91823954Y-53225232D01*
X92006450Y-53127685D01*
X92166410Y-52996410D01*
X92297685Y-52836450D01*
X92395232Y-52653954D01*
X92455300Y-52455934D01*
X92455301Y-52455929D01*
X92475583Y-52250003D01*
X92475583Y-52249996D01*
X92455301Y-52044070D01*
X92455300Y-52044065D01*
X92437078Y-51983997D01*
X92395232Y-51846046D01*
X92297685Y-51663550D01*
X92287721Y-51651409D01*
X92166414Y-51503595D01*
X92166410Y-51503590D01*
X92163288Y-51501028D01*
X92130301Y-51449497D01*
X92133902Y-51388418D01*
X92172718Y-51341121D01*
X92226093Y-51325500D01*
X93153907Y-51325500D01*
X93212098Y-51344407D01*
X93248062Y-51393907D01*
X93248062Y-51455093D01*
X93216711Y-51501029D01*
X93213593Y-51503587D01*
X93213585Y-51503595D01*
X93082316Y-51663547D01*
X92984768Y-51846045D01*
X92924699Y-52044065D01*
X92924698Y-52044070D01*
X92904417Y-52249996D01*
X92904417Y-52250003D01*
X92924698Y-52455929D01*
X92924699Y-52455934D01*
X92984768Y-52653954D01*
X93082316Y-52836452D01*
X93213296Y-52996052D01*
X93213590Y-52996410D01*
X93218574Y-53000500D01*
X93373547Y-53127683D01*
X93373548Y-53127683D01*
X93373550Y-53127685D01*
X93556046Y-53225232D01*
X93693997Y-53267078D01*
X93754065Y-53285300D01*
X93754070Y-53285301D01*
X93959997Y-53305583D01*
X93960000Y-53305583D01*
X93960003Y-53305583D01*
X94165929Y-53285301D01*
X94165934Y-53285300D01*
X94167556Y-53284808D01*
X94363954Y-53225232D01*
X94546450Y-53127685D01*
X94706410Y-52996410D01*
X94837685Y-52836450D01*
X94935232Y-52653954D01*
X94995300Y-52455934D01*
X94995301Y-52455929D01*
X95015583Y-52250003D01*
X95015583Y-52249996D01*
X94995301Y-52044070D01*
X94995300Y-52044065D01*
X94977078Y-51983997D01*
X94935232Y-51846046D01*
X94837685Y-51663550D01*
X94827721Y-51651409D01*
X94706414Y-51503595D01*
X94706410Y-51503590D01*
X94703288Y-51501028D01*
X94670301Y-51449497D01*
X94673902Y-51388418D01*
X94712718Y-51341121D01*
X94766093Y-51325500D01*
X95693907Y-51325500D01*
X95752098Y-51344407D01*
X95788062Y-51393907D01*
X95788062Y-51455093D01*
X95756711Y-51501029D01*
X95753593Y-51503587D01*
X95753585Y-51503595D01*
X95622316Y-51663547D01*
X95524768Y-51846045D01*
X95464699Y-52044065D01*
X95464698Y-52044070D01*
X95444417Y-52249996D01*
X95444417Y-52250003D01*
X95464698Y-52455929D01*
X95464699Y-52455934D01*
X95524768Y-52653954D01*
X95622316Y-52836452D01*
X95753296Y-52996052D01*
X95753590Y-52996410D01*
X95758574Y-53000500D01*
X95913547Y-53127683D01*
X95913548Y-53127683D01*
X95913550Y-53127685D01*
X96096046Y-53225232D01*
X96233997Y-53267078D01*
X96294065Y-53285300D01*
X96294070Y-53285301D01*
X96499997Y-53305583D01*
X96500000Y-53305583D01*
X96500003Y-53305583D01*
X96705929Y-53285301D01*
X96705934Y-53285300D01*
X96707556Y-53284808D01*
X96903954Y-53225232D01*
X97086450Y-53127685D01*
X97246410Y-52996410D01*
X97377685Y-52836450D01*
X97475232Y-52653954D01*
X97535300Y-52455934D01*
X97535301Y-52455929D01*
X97555583Y-52250003D01*
X97555583Y-52249996D01*
X97535301Y-52044070D01*
X97535300Y-52044065D01*
X97517078Y-51983997D01*
X97475232Y-51846046D01*
X97377685Y-51663550D01*
X97367721Y-51651409D01*
X97246414Y-51503595D01*
X97246410Y-51503590D01*
X97243288Y-51501028D01*
X97210301Y-51449497D01*
X97213902Y-51388418D01*
X97252718Y-51341121D01*
X97306093Y-51325500D01*
X98233907Y-51325500D01*
X98292098Y-51344407D01*
X98328062Y-51393907D01*
X98328062Y-51455093D01*
X98296711Y-51501029D01*
X98293593Y-51503587D01*
X98293585Y-51503595D01*
X98162316Y-51663547D01*
X98064768Y-51846045D01*
X98004699Y-52044065D01*
X98004698Y-52044070D01*
X97984417Y-52249996D01*
X97984417Y-52250003D01*
X98004698Y-52455929D01*
X98004699Y-52455934D01*
X98064768Y-52653954D01*
X98162316Y-52836452D01*
X98293296Y-52996052D01*
X98293590Y-52996410D01*
X98298574Y-53000500D01*
X98453547Y-53127683D01*
X98453548Y-53127683D01*
X98453550Y-53127685D01*
X98636046Y-53225232D01*
X98773997Y-53267078D01*
X98834065Y-53285300D01*
X98834070Y-53285301D01*
X99039997Y-53305583D01*
X99040000Y-53305583D01*
X99040003Y-53305583D01*
X99245929Y-53285301D01*
X99245934Y-53285300D01*
X99247556Y-53284808D01*
X99443954Y-53225232D01*
X99626450Y-53127685D01*
X99786410Y-52996410D01*
X99917685Y-52836450D01*
X100015232Y-52653954D01*
X100075300Y-52455934D01*
X100075301Y-52455929D01*
X100095583Y-52250003D01*
X100095583Y-52249996D01*
X100075301Y-52044070D01*
X100075300Y-52044065D01*
X100057078Y-51983997D01*
X100015232Y-51846046D01*
X99917685Y-51663550D01*
X99907721Y-51651409D01*
X99786414Y-51503595D01*
X99786410Y-51503590D01*
X99783288Y-51501028D01*
X99750301Y-51449497D01*
X99753902Y-51388418D01*
X99792718Y-51341121D01*
X99846093Y-51325500D01*
X100773907Y-51325500D01*
X100832098Y-51344407D01*
X100868062Y-51393907D01*
X100868062Y-51455093D01*
X100836711Y-51501029D01*
X100833593Y-51503587D01*
X100833585Y-51503595D01*
X100702316Y-51663547D01*
X100604768Y-51846045D01*
X100544699Y-52044065D01*
X100544698Y-52044070D01*
X100524417Y-52249996D01*
X100524417Y-52250003D01*
X100544698Y-52455929D01*
X100544699Y-52455934D01*
X100604768Y-52653954D01*
X100702316Y-52836452D01*
X100833296Y-52996052D01*
X100833590Y-52996410D01*
X100838574Y-53000500D01*
X100993547Y-53127683D01*
X100993548Y-53127683D01*
X100993550Y-53127685D01*
X101176046Y-53225232D01*
X101313997Y-53267078D01*
X101374065Y-53285300D01*
X101374070Y-53285301D01*
X101579997Y-53305583D01*
X101580000Y-53305583D01*
X101580003Y-53305583D01*
X101785929Y-53285301D01*
X101785934Y-53285300D01*
X101787556Y-53284808D01*
X101983954Y-53225232D01*
X102166450Y-53127685D01*
X102326410Y-52996410D01*
X102457685Y-52836450D01*
X102555232Y-52653954D01*
X102615300Y-52455934D01*
X102615301Y-52455929D01*
X102635583Y-52250003D01*
X102635583Y-52249996D01*
X102615301Y-52044070D01*
X102615300Y-52044065D01*
X102597078Y-51983997D01*
X102555232Y-51846046D01*
X102457685Y-51663550D01*
X102447721Y-51651409D01*
X102326414Y-51503595D01*
X102326410Y-51503590D01*
X102323288Y-51501028D01*
X102290301Y-51449497D01*
X102293902Y-51388418D01*
X102332718Y-51341121D01*
X102386093Y-51325500D01*
X103313907Y-51325500D01*
X103372098Y-51344407D01*
X103408062Y-51393907D01*
X103408062Y-51455093D01*
X103376711Y-51501029D01*
X103373593Y-51503587D01*
X103373585Y-51503595D01*
X103242316Y-51663547D01*
X103144768Y-51846045D01*
X103084699Y-52044065D01*
X103084698Y-52044070D01*
X103064417Y-52249996D01*
X103064417Y-52250003D01*
X103084698Y-52455929D01*
X103084699Y-52455934D01*
X103144768Y-52653954D01*
X103242316Y-52836452D01*
X103373296Y-52996052D01*
X103373590Y-52996410D01*
X103378574Y-53000500D01*
X103533547Y-53127683D01*
X103533548Y-53127683D01*
X103533550Y-53127685D01*
X103716046Y-53225232D01*
X103853997Y-53267078D01*
X103914065Y-53285300D01*
X103914070Y-53285301D01*
X104119997Y-53305583D01*
X104120000Y-53305583D01*
X104120003Y-53305583D01*
X104325929Y-53285301D01*
X104325934Y-53285300D01*
X104327556Y-53284808D01*
X104523954Y-53225232D01*
X104706450Y-53127685D01*
X104866410Y-52996410D01*
X104997685Y-52836450D01*
X105095232Y-52653954D01*
X105155300Y-52455934D01*
X105155301Y-52455929D01*
X105175583Y-52250003D01*
X105175583Y-52249996D01*
X105155301Y-52044070D01*
X105155300Y-52044065D01*
X105137078Y-51983997D01*
X105095232Y-51846046D01*
X104997685Y-51663550D01*
X104987721Y-51651409D01*
X104866414Y-51503595D01*
X104866410Y-51503590D01*
X104863288Y-51501028D01*
X104830301Y-51449497D01*
X104833902Y-51388418D01*
X104872718Y-51341121D01*
X104926093Y-51325500D01*
X105853907Y-51325500D01*
X105912098Y-51344407D01*
X105948062Y-51393907D01*
X105948062Y-51455093D01*
X105916711Y-51501029D01*
X105913593Y-51503587D01*
X105913585Y-51503595D01*
X105782316Y-51663547D01*
X105684768Y-51846045D01*
X105624699Y-52044065D01*
X105624698Y-52044070D01*
X105604417Y-52249996D01*
X105604417Y-52250003D01*
X105624698Y-52455929D01*
X105624699Y-52455934D01*
X105684768Y-52653954D01*
X105782316Y-52836452D01*
X105913296Y-52996052D01*
X105913590Y-52996410D01*
X105918574Y-53000500D01*
X106073547Y-53127683D01*
X106073548Y-53127683D01*
X106073550Y-53127685D01*
X106256046Y-53225232D01*
X106393997Y-53267078D01*
X106454065Y-53285300D01*
X106454070Y-53285301D01*
X106659997Y-53305583D01*
X106660000Y-53305583D01*
X106660003Y-53305583D01*
X106865929Y-53285301D01*
X106865934Y-53285300D01*
X106867556Y-53284808D01*
X107063954Y-53225232D01*
X107246450Y-53127685D01*
X107347697Y-53044594D01*
X107404671Y-53022295D01*
X107463874Y-53037743D01*
X107502690Y-53085040D01*
X107509500Y-53121123D01*
X107509500Y-53918876D01*
X107490593Y-53977067D01*
X107441093Y-54013031D01*
X107379907Y-54013031D01*
X107347695Y-53995404D01*
X107320627Y-53973190D01*
X107246452Y-53912316D01*
X107063954Y-53814768D01*
X106865934Y-53754699D01*
X106865929Y-53754698D01*
X106660003Y-53734417D01*
X106659997Y-53734417D01*
X106454070Y-53754698D01*
X106454065Y-53754699D01*
X106256045Y-53814768D01*
X106073547Y-53912316D01*
X105913595Y-54043585D01*
X105913585Y-54043595D01*
X105782316Y-54203547D01*
X105684768Y-54386045D01*
X105624699Y-54584065D01*
X105624698Y-54584070D01*
X105604417Y-54789996D01*
X105604417Y-54790003D01*
X105624698Y-54995929D01*
X105624699Y-54995934D01*
X105684768Y-55193954D01*
X105782316Y-55376452D01*
X105827867Y-55431956D01*
X105913590Y-55536410D01*
X105913595Y-55536414D01*
X106073547Y-55667683D01*
X106073548Y-55667683D01*
X106073550Y-55667685D01*
X106256046Y-55765232D01*
X106393997Y-55807078D01*
X106454065Y-55825300D01*
X106454070Y-55825301D01*
X106659997Y-55845583D01*
X106660000Y-55845583D01*
X106660003Y-55845583D01*
X106865929Y-55825301D01*
X106865934Y-55825300D01*
X107063954Y-55765232D01*
X107246450Y-55667685D01*
X107347697Y-55584594D01*
X107404671Y-55562295D01*
X107463874Y-55577743D01*
X107502690Y-55625040D01*
X107509500Y-55661123D01*
X107509500Y-69398625D01*
X107509312Y-69402927D01*
X107505736Y-69443807D01*
X107510505Y-69461607D01*
X107516354Y-69483436D01*
X107517289Y-69487652D01*
X107524411Y-69528045D01*
X107525164Y-69529348D01*
X107535054Y-69553224D01*
X107535443Y-69554679D01*
X107535446Y-69554684D01*
X107558971Y-69588281D01*
X107561292Y-69591924D01*
X107581806Y-69627455D01*
X107613224Y-69653818D01*
X107616410Y-69656737D01*
X108734323Y-70774649D01*
X108762100Y-70829166D01*
X108759056Y-70873391D01*
X108699699Y-71069065D01*
X108699698Y-71069070D01*
X108679417Y-71274996D01*
X108679417Y-71275003D01*
X108699698Y-71480929D01*
X108699699Y-71480934D01*
X108759768Y-71678954D01*
X108857316Y-71861452D01*
X108956707Y-71982560D01*
X108988590Y-72021410D01*
X108988595Y-72021414D01*
X109148547Y-72152683D01*
X109148548Y-72152683D01*
X109148550Y-72152685D01*
X109331046Y-72250232D01*
X109468997Y-72292078D01*
X109529065Y-72310300D01*
X109529070Y-72310301D01*
X109734997Y-72330583D01*
X109735000Y-72330583D01*
X109735003Y-72330583D01*
X109940929Y-72310301D01*
X109940934Y-72310300D01*
X110138954Y-72250232D01*
X110321450Y-72152685D01*
X110331124Y-72144746D01*
X111224500Y-72144746D01*
X111224501Y-72144758D01*
X111236132Y-72203227D01*
X111236134Y-72203233D01*
X111280445Y-72269548D01*
X111280448Y-72269552D01*
X111346769Y-72313867D01*
X111391231Y-72322711D01*
X111405241Y-72325498D01*
X111405246Y-72325498D01*
X111405252Y-72325500D01*
X111405253Y-72325500D01*
X113144747Y-72325500D01*
X113144748Y-72325500D01*
X113203231Y-72313867D01*
X113269552Y-72269552D01*
X113313867Y-72203231D01*
X113325500Y-72144748D01*
X113325500Y-70405252D01*
X113323921Y-70397316D01*
X113322711Y-70391231D01*
X113313867Y-70346769D01*
X113301654Y-70328492D01*
X113269554Y-70280451D01*
X113269552Y-70280448D01*
X113269548Y-70280445D01*
X113203233Y-70236134D01*
X113203231Y-70236133D01*
X113203228Y-70236132D01*
X113203227Y-70236132D01*
X113144758Y-70224501D01*
X113144748Y-70224500D01*
X111405252Y-70224500D01*
X111405251Y-70224500D01*
X111405241Y-70224501D01*
X111346772Y-70236132D01*
X111346766Y-70236134D01*
X111280451Y-70280445D01*
X111280445Y-70280451D01*
X111236134Y-70346766D01*
X111236132Y-70346772D01*
X111224501Y-70405241D01*
X111224500Y-70405253D01*
X111224500Y-72144746D01*
X110331124Y-72144746D01*
X110481410Y-72021410D01*
X110612685Y-71861450D01*
X110710232Y-71678954D01*
X110770300Y-71480934D01*
X110770301Y-71480929D01*
X110790583Y-71275003D01*
X110790583Y-71274996D01*
X110770301Y-71069070D01*
X110770300Y-71069065D01*
X110710943Y-70873391D01*
X110710232Y-70871046D01*
X110612685Y-70688550D01*
X110481410Y-70528590D01*
X110446452Y-70499901D01*
X110321452Y-70397316D01*
X110138954Y-70299768D01*
X109940934Y-70239699D01*
X109940929Y-70239698D01*
X109735003Y-70219417D01*
X109734997Y-70219417D01*
X109529070Y-70239698D01*
X109529065Y-70239699D01*
X109331052Y-70299766D01*
X109331049Y-70299766D01*
X109331046Y-70299768D01*
X109331044Y-70299768D01*
X109331036Y-70299772D01*
X109297426Y-70317737D01*
X109237193Y-70328492D01*
X109182143Y-70301789D01*
X109180756Y-70300430D01*
X108189496Y-69309170D01*
X108161719Y-69254653D01*
X108160500Y-69239166D01*
X108160500Y-67899834D01*
X108179407Y-67841643D01*
X108228907Y-67805679D01*
X108290093Y-67805679D01*
X108329504Y-67829830D01*
X108734323Y-68234649D01*
X108762100Y-68289166D01*
X108759056Y-68333391D01*
X108699699Y-68529065D01*
X108699698Y-68529070D01*
X108679417Y-68734996D01*
X108679417Y-68735003D01*
X108699698Y-68940929D01*
X108699699Y-68940934D01*
X108759768Y-69138954D01*
X108857316Y-69321452D01*
X108988302Y-69481059D01*
X108988590Y-69481410D01*
X108991059Y-69483436D01*
X109148547Y-69612683D01*
X109148548Y-69612683D01*
X109148550Y-69612685D01*
X109331046Y-69710232D01*
X109468997Y-69752078D01*
X109529065Y-69770300D01*
X109529070Y-69770301D01*
X109734997Y-69790583D01*
X109735000Y-69790583D01*
X109735003Y-69790583D01*
X109940929Y-69770301D01*
X109940934Y-69770300D01*
X109942556Y-69769808D01*
X110138954Y-69710232D01*
X110321450Y-69612685D01*
X110481410Y-69481410D01*
X110612685Y-69321450D01*
X110710232Y-69138954D01*
X110770300Y-68940934D01*
X110770301Y-68940929D01*
X110780734Y-68835000D01*
X111229767Y-68835000D01*
X111240190Y-68940831D01*
X111240191Y-68940836D01*
X111300232Y-69138762D01*
X111300234Y-69138767D01*
X111397724Y-69321160D01*
X111397731Y-69321170D01*
X111528940Y-69481050D01*
X111528949Y-69481059D01*
X111688829Y-69612268D01*
X111688839Y-69612275D01*
X111871232Y-69709765D01*
X111871237Y-69709767D01*
X112069166Y-69769808D01*
X112174998Y-69780231D01*
X112175000Y-69780230D01*
X112175000Y-69225764D01*
X112239237Y-69235000D01*
X112310763Y-69235000D01*
X112375000Y-69225764D01*
X112375000Y-69780230D01*
X112375001Y-69780231D01*
X112480833Y-69769808D01*
X112678762Y-69709767D01*
X112678767Y-69709765D01*
X112861160Y-69612275D01*
X112861170Y-69612268D01*
X113021050Y-69481059D01*
X113021059Y-69481050D01*
X113152268Y-69321170D01*
X113152275Y-69321160D01*
X113249765Y-69138767D01*
X113249767Y-69138762D01*
X113309808Y-68940836D01*
X113309809Y-68940831D01*
X113320232Y-68835000D01*
X112766746Y-68835000D01*
X112775000Y-68806889D01*
X112775000Y-68663111D01*
X112766746Y-68635000D01*
X113320232Y-68635000D01*
X113320232Y-68634999D01*
X113309809Y-68529168D01*
X113309808Y-68529163D01*
X113249767Y-68331237D01*
X113249765Y-68331232D01*
X113152275Y-68148839D01*
X113152268Y-68148829D01*
X113021059Y-67988949D01*
X113021050Y-67988940D01*
X112861170Y-67857731D01*
X112861160Y-67857724D01*
X112678767Y-67760234D01*
X112678762Y-67760232D01*
X112480836Y-67700191D01*
X112480831Y-67700190D01*
X112375000Y-67689767D01*
X112375000Y-68244235D01*
X112310763Y-68235000D01*
X112239237Y-68235000D01*
X112175000Y-68244235D01*
X112175000Y-67689767D01*
X112174999Y-67689767D01*
X112069168Y-67700190D01*
X112069163Y-67700191D01*
X111871237Y-67760232D01*
X111871232Y-67760234D01*
X111688839Y-67857724D01*
X111688829Y-67857731D01*
X111528949Y-67988940D01*
X111528940Y-67988949D01*
X111397731Y-68148829D01*
X111397724Y-68148839D01*
X111300234Y-68331232D01*
X111300232Y-68331237D01*
X111240191Y-68529163D01*
X111240190Y-68529168D01*
X111229767Y-68634999D01*
X111229768Y-68635000D01*
X111783254Y-68635000D01*
X111775000Y-68663111D01*
X111775000Y-68806889D01*
X111783254Y-68835000D01*
X111229767Y-68835000D01*
X110780734Y-68835000D01*
X110790583Y-68735003D01*
X110790583Y-68734996D01*
X110770301Y-68529070D01*
X110770300Y-68529065D01*
X110732423Y-68404202D01*
X110710232Y-68331046D01*
X110612685Y-68148550D01*
X110481410Y-67988590D01*
X110373260Y-67899834D01*
X110321452Y-67857316D01*
X110138954Y-67759768D01*
X109940934Y-67699699D01*
X109940929Y-67699698D01*
X109735003Y-67679417D01*
X109734997Y-67679417D01*
X109529070Y-67699698D01*
X109529065Y-67699699D01*
X109331052Y-67759766D01*
X109331049Y-67759766D01*
X109331046Y-67759768D01*
X109331044Y-67759768D01*
X109331036Y-67759772D01*
X109297426Y-67777737D01*
X109237193Y-67788492D01*
X109182143Y-67761789D01*
X109180756Y-67760430D01*
X108639496Y-67219170D01*
X108611719Y-67164653D01*
X108610500Y-67149166D01*
X108610500Y-66714922D01*
X108629407Y-66656731D01*
X108678907Y-66620767D01*
X108740093Y-66620767D01*
X108789593Y-66656731D01*
X108796805Y-66668246D01*
X108821755Y-66714922D01*
X108857316Y-66781452D01*
X108988302Y-66941059D01*
X108988590Y-66941410D01*
X108988595Y-66941414D01*
X109148547Y-67072683D01*
X109148548Y-67072683D01*
X109148550Y-67072685D01*
X109331046Y-67170232D01*
X109468997Y-67212078D01*
X109529065Y-67230300D01*
X109529070Y-67230301D01*
X109734997Y-67250583D01*
X109735000Y-67250583D01*
X109735003Y-67250583D01*
X109940929Y-67230301D01*
X109940934Y-67230300D01*
X109977625Y-67219170D01*
X110138954Y-67170232D01*
X110321450Y-67072685D01*
X110481410Y-66941410D01*
X110612685Y-66781450D01*
X110710232Y-66598954D01*
X110770300Y-66400934D01*
X110770301Y-66400929D01*
X110780734Y-66295000D01*
X111229767Y-66295000D01*
X111240190Y-66400831D01*
X111240191Y-66400836D01*
X111300232Y-66598762D01*
X111300234Y-66598767D01*
X111397724Y-66781160D01*
X111397731Y-66781170D01*
X111528940Y-66941050D01*
X111528949Y-66941059D01*
X111688829Y-67072268D01*
X111688839Y-67072275D01*
X111871232Y-67169765D01*
X111871237Y-67169767D01*
X112069166Y-67229808D01*
X112174998Y-67240231D01*
X112175000Y-67240230D01*
X112175000Y-66685764D01*
X112239237Y-66695000D01*
X112310763Y-66695000D01*
X112375000Y-66685764D01*
X112375000Y-67240230D01*
X112375001Y-67240231D01*
X112480833Y-67229808D01*
X112678762Y-67169767D01*
X112678767Y-67169765D01*
X112861160Y-67072275D01*
X112861170Y-67072268D01*
X113021050Y-66941059D01*
X113021059Y-66941050D01*
X113152268Y-66781170D01*
X113152275Y-66781160D01*
X113249765Y-66598767D01*
X113249767Y-66598762D01*
X113309808Y-66400836D01*
X113309809Y-66400831D01*
X113320232Y-66295000D01*
X112766746Y-66295000D01*
X112775000Y-66266889D01*
X112775000Y-66123111D01*
X112766746Y-66095000D01*
X113320232Y-66095000D01*
X113320232Y-66094999D01*
X113309809Y-65989168D01*
X113309808Y-65989163D01*
X113249767Y-65791237D01*
X113249765Y-65791232D01*
X113152275Y-65608839D01*
X113152268Y-65608829D01*
X113021059Y-65448949D01*
X113021050Y-65448940D01*
X112861170Y-65317731D01*
X112861160Y-65317724D01*
X112678767Y-65220234D01*
X112678762Y-65220232D01*
X112480836Y-65160191D01*
X112480831Y-65160190D01*
X112375000Y-65149767D01*
X112375000Y-65704235D01*
X112310763Y-65695000D01*
X112239237Y-65695000D01*
X112175000Y-65704235D01*
X112175000Y-65149767D01*
X112174999Y-65149767D01*
X112069168Y-65160190D01*
X112069163Y-65160191D01*
X111871237Y-65220232D01*
X111871232Y-65220234D01*
X111688839Y-65317724D01*
X111688829Y-65317731D01*
X111528949Y-65448940D01*
X111528940Y-65448949D01*
X111397731Y-65608829D01*
X111397724Y-65608839D01*
X111300234Y-65791232D01*
X111300232Y-65791237D01*
X111240191Y-65989163D01*
X111240190Y-65989168D01*
X111229767Y-66094999D01*
X111229768Y-66095000D01*
X111783254Y-66095000D01*
X111775000Y-66123111D01*
X111775000Y-66266889D01*
X111783254Y-66295000D01*
X111229767Y-66295000D01*
X110780734Y-66295000D01*
X110790583Y-66195003D01*
X110790583Y-66194996D01*
X110770301Y-65989070D01*
X110770300Y-65989065D01*
X110732423Y-65864202D01*
X110710232Y-65791046D01*
X110612685Y-65608550D01*
X110481410Y-65448590D01*
X110481404Y-65448585D01*
X110321452Y-65317316D01*
X110138954Y-65219768D01*
X109940934Y-65159699D01*
X109940929Y-65159698D01*
X109735003Y-65139417D01*
X109734997Y-65139417D01*
X109529070Y-65159698D01*
X109529065Y-65159699D01*
X109331045Y-65219768D01*
X109148547Y-65317316D01*
X108988595Y-65448585D01*
X108988585Y-65448595D01*
X108857316Y-65608547D01*
X108796810Y-65721746D01*
X108752704Y-65764152D01*
X108692096Y-65772535D01*
X108638135Y-65743692D01*
X108611434Y-65688641D01*
X108610500Y-65675077D01*
X108610500Y-57999901D01*
X109249500Y-57999901D01*
X109249501Y-61499500D01*
X109249501Y-61556392D01*
X109274596Y-61666345D01*
X109274599Y-61666353D01*
X109323530Y-61767960D01*
X109323532Y-61767963D01*
X109323533Y-61767964D01*
X109323534Y-61767966D01*
X109393854Y-61856146D01*
X109482034Y-61926466D01*
X109482035Y-61926466D01*
X109482036Y-61926467D01*
X109482039Y-61926469D01*
X109530971Y-61950033D01*
X109583650Y-61975402D01*
X109693607Y-62000499D01*
X113306393Y-62000499D01*
X113416350Y-61975402D01*
X113517966Y-61926466D01*
X113606146Y-61856146D01*
X113676466Y-61767966D01*
X113725402Y-61666350D01*
X113750499Y-61556393D01*
X113750499Y-61500000D01*
X113750499Y-61499500D01*
X113750499Y-57999901D01*
X113750499Y-57943607D01*
X113725402Y-57833650D01*
X113702915Y-57786955D01*
X113676469Y-57732039D01*
X113676467Y-57732036D01*
X113676466Y-57732035D01*
X113676466Y-57732034D01*
X113606146Y-57643854D01*
X113517966Y-57573534D01*
X113517964Y-57573533D01*
X113517963Y-57573532D01*
X113517960Y-57573530D01*
X113416353Y-57524599D01*
X113416345Y-57524596D01*
X113306393Y-57499501D01*
X113250099Y-57499501D01*
X109750500Y-57499500D01*
X109750000Y-57499500D01*
X109693607Y-57499500D01*
X109583654Y-57524595D01*
X109583647Y-57524598D01*
X109482034Y-57573531D01*
X109393858Y-57643850D01*
X109393850Y-57643858D01*
X109323531Y-57732034D01*
X109274598Y-57833647D01*
X109274595Y-57833654D01*
X109249500Y-57943607D01*
X109249500Y-57999901D01*
X108610500Y-57999901D01*
X108610500Y-54856337D01*
X108629407Y-54798146D01*
X108678907Y-54762182D01*
X108740093Y-54762182D01*
X108789593Y-54798146D01*
X108800402Y-54817124D01*
X108814111Y-54848904D01*
X108988870Y-55151596D01*
X109197588Y-55431953D01*
X109437442Y-55686183D01*
X109705189Y-55910849D01*
X109997207Y-56102913D01*
X110309549Y-56259777D01*
X110637989Y-56379319D01*
X110637992Y-56379319D01*
X110637993Y-56379320D01*
X110978075Y-56459921D01*
X110978080Y-56459921D01*
X110978086Y-56459923D01*
X111325241Y-56500500D01*
X111325244Y-56500500D01*
X111674756Y-56500500D01*
X111674759Y-56500500D01*
X112021914Y-56459923D01*
X112021920Y-56459921D01*
X112021924Y-56459921D01*
X112248645Y-56406187D01*
X112362011Y-56379319D01*
X112690451Y-56259777D01*
X113002793Y-56102913D01*
X113294811Y-55910849D01*
X113562558Y-55686183D01*
X113802412Y-55431953D01*
X114011130Y-55151596D01*
X114185889Y-54848904D01*
X114324326Y-54527971D01*
X114424569Y-54193136D01*
X114485262Y-53848927D01*
X114505585Y-53500000D01*
X114485262Y-53151073D01*
X114424569Y-52806864D01*
X114324326Y-52472029D01*
X114185889Y-52151096D01*
X114011130Y-51848404D01*
X113802412Y-51568047D01*
X113562558Y-51313817D01*
X113516576Y-51275234D01*
X113444435Y-51214700D01*
X113294811Y-51089151D01*
X113167008Y-51005093D01*
X113002794Y-50897087D01*
X112690453Y-50740224D01*
X112690452Y-50740223D01*
X112690451Y-50740223D01*
X112362011Y-50620681D01*
X112362012Y-50620681D01*
X112362006Y-50620679D01*
X112021924Y-50540078D01*
X111849889Y-50519970D01*
X111674759Y-50499500D01*
X111325241Y-50499500D01*
X111150111Y-50519970D01*
X110978075Y-50540078D01*
X110637993Y-50620679D01*
X110516297Y-50664973D01*
X110309549Y-50740223D01*
X110309548Y-50740223D01*
X110309546Y-50740224D01*
X109997205Y-50897087D01*
X109705190Y-51089150D01*
X109437443Y-51313815D01*
X109197591Y-51568043D01*
X108988871Y-51848402D01*
X108988869Y-51848405D01*
X108814111Y-52151095D01*
X108814111Y-52151096D01*
X108800403Y-52182875D01*
X108759993Y-52228817D01*
X108700297Y-52242233D01*
X108644116Y-52217999D01*
X108612909Y-52165370D01*
X108610500Y-52143662D01*
X108610500Y-51593267D01*
X108610687Y-51588970D01*
X108614263Y-51548096D01*
X108603638Y-51508447D01*
X108602713Y-51504268D01*
X108595588Y-51463858D01*
X108595588Y-51463857D01*
X108594840Y-51462562D01*
X108584942Y-51438670D01*
X108584554Y-51437219D01*
X108584552Y-51437216D01*
X108584551Y-51437214D01*
X108561025Y-51403615D01*
X108558703Y-51399971D01*
X108538193Y-51364446D01*
X108510394Y-51341121D01*
X108506765Y-51338076D01*
X108503588Y-51335164D01*
X107499838Y-50331414D01*
X107496919Y-50328229D01*
X107470553Y-50296806D01*
X107440011Y-50279173D01*
X107435015Y-50276288D01*
X107431380Y-50273972D01*
X107397781Y-50250446D01*
X107397776Y-50250443D01*
X107396321Y-50250054D01*
X107372445Y-50240164D01*
X107371142Y-50239411D01*
X107330749Y-50232289D01*
X107326533Y-50231354D01*
X107300250Y-50224312D01*
X107286904Y-50220736D01*
X107286903Y-50220736D01*
X107282478Y-50221123D01*
X107246023Y-50224312D01*
X107241723Y-50224500D01*
X63534673Y-50224500D01*
X63530372Y-50224312D01*
X63489492Y-50220736D01*
X63489486Y-50220736D01*
X63449863Y-50231353D01*
X63445648Y-50232287D01*
X63405259Y-50239410D01*
X63405247Y-50239414D01*
X63403939Y-50240170D01*
X63380085Y-50250051D01*
X63378623Y-50250442D01*
X63378615Y-50250446D01*
X63345015Y-50273972D01*
X63341379Y-50276288D01*
X63339183Y-50277557D01*
X63305844Y-50296805D01*
X63279480Y-50328224D01*
X63276562Y-50331408D01*
X62031413Y-51576558D01*
X62028229Y-51579475D01*
X61996807Y-51605841D01*
X61996805Y-51605843D01*
X61976291Y-51641375D01*
X61973970Y-51645018D01*
X61969561Y-51651315D01*
X61920695Y-51688136D01*
X61859519Y-51689202D01*
X61811938Y-51657334D01*
X61686059Y-51503949D01*
X61686050Y-51503940D01*
X61526170Y-51372731D01*
X61526160Y-51372724D01*
X61343767Y-51275234D01*
X61343762Y-51275232D01*
X61145836Y-51215191D01*
X61145831Y-51215190D01*
X61040000Y-51204767D01*
X61040000Y-51759235D01*
X60975763Y-51750000D01*
X60904237Y-51750000D01*
X60840000Y-51759235D01*
X60840000Y-51204767D01*
X60839999Y-51204767D01*
X60734168Y-51215190D01*
X60734163Y-51215191D01*
X60536237Y-51275232D01*
X60536232Y-51275234D01*
X60353839Y-51372724D01*
X60353829Y-51372731D01*
X60193949Y-51503940D01*
X60193940Y-51503949D01*
X60062731Y-51663829D01*
X60062724Y-51663839D01*
X59965234Y-51846232D01*
X59965232Y-51846237D01*
X59905191Y-52044163D01*
X59905190Y-52044168D01*
X59894767Y-52149999D01*
X59894768Y-52150000D01*
X60448254Y-52150000D01*
X60440000Y-52178111D01*
X60440000Y-52321889D01*
X60448254Y-52350000D01*
X59894767Y-52350000D01*
X59905190Y-52455831D01*
X59905191Y-52455836D01*
X59965232Y-52653762D01*
X59965234Y-52653767D01*
X60062724Y-52836160D01*
X60062731Y-52836170D01*
X60193940Y-52996050D01*
X60193949Y-52996059D01*
X60353829Y-53127268D01*
X60353839Y-53127275D01*
X60536232Y-53224765D01*
X60536237Y-53224767D01*
X60734166Y-53284808D01*
X60839998Y-53295231D01*
X60840000Y-53295230D01*
X60840000Y-52740764D01*
X60904237Y-52750000D01*
X60975763Y-52750000D01*
X61040000Y-52740764D01*
X61040000Y-53295230D01*
X61040001Y-53295231D01*
X61145833Y-53284808D01*
X61343762Y-53224767D01*
X61343767Y-53224765D01*
X61526160Y-53127275D01*
X61526170Y-53127268D01*
X61686050Y-52996059D01*
X61686057Y-52996052D01*
X61748971Y-52919391D01*
X61800503Y-52886403D01*
X61861582Y-52890004D01*
X61908879Y-52928820D01*
X61924500Y-52982195D01*
X61924500Y-53304165D01*
X61905593Y-53362356D01*
X61895503Y-53374169D01*
X61468174Y-53801497D01*
X61413658Y-53829274D01*
X61353226Y-53819703D01*
X61351548Y-53818827D01*
X61343954Y-53814768D01*
X61280254Y-53795445D01*
X61145934Y-53754699D01*
X61145929Y-53754698D01*
X60940003Y-53734417D01*
X60939997Y-53734417D01*
X60734070Y-53754698D01*
X60734065Y-53754699D01*
X60536045Y-53814768D01*
X60353547Y-53912316D01*
X60193595Y-54043585D01*
X60193585Y-54043595D01*
X60062316Y-54203547D01*
X59964768Y-54386045D01*
X59904699Y-54584065D01*
X59904698Y-54584070D01*
X59884417Y-54789996D01*
X59884417Y-54790003D01*
X59450500Y-54790003D01*
X59450500Y-53920252D01*
X59448921Y-53912316D01*
X59447711Y-53906231D01*
X59438867Y-53861769D01*
X59394552Y-53795448D01*
X59344101Y-53761737D01*
X59328233Y-53751134D01*
X59328231Y-53751133D01*
X59328228Y-53751132D01*
X59328227Y-53751132D01*
X59269758Y-53739501D01*
X59269748Y-53739500D01*
X57530252Y-53739500D01*
X57530251Y-53739500D01*
X57530241Y-53739501D01*
X57471772Y-53751132D01*
X57471766Y-53751134D01*
X57405451Y-53795445D01*
X57405445Y-53795451D01*
X57361134Y-53861766D01*
X57361132Y-53861772D01*
X57349501Y-53920241D01*
X57349500Y-53920253D01*
X57349500Y-55659746D01*
X55587500Y-55659746D01*
X55802412Y-55431953D01*
X56011130Y-55151596D01*
X56185889Y-54848904D01*
X56324326Y-54527971D01*
X56424569Y-54193136D01*
X56485262Y-53848927D01*
X56505585Y-53500000D01*
X56485262Y-53151073D01*
X56424569Y-52806864D01*
X56324326Y-52472029D01*
X56271688Y-52350000D01*
X57354767Y-52350000D01*
X57365190Y-52455831D01*
X57365191Y-52455836D01*
X57425232Y-52653762D01*
X57425234Y-52653767D01*
X57522724Y-52836160D01*
X57522731Y-52836170D01*
X57653940Y-52996050D01*
X57653949Y-52996059D01*
X57813829Y-53127268D01*
X57813839Y-53127275D01*
X57996232Y-53224765D01*
X57996237Y-53224767D01*
X58194166Y-53284808D01*
X58299998Y-53295231D01*
X58300000Y-53295230D01*
X58300000Y-52740764D01*
X58364237Y-52750000D01*
X58435763Y-52750000D01*
X58500000Y-52740764D01*
X58500000Y-53295230D01*
X58500001Y-53295231D01*
X58605833Y-53284808D01*
X58803762Y-53224767D01*
X58803767Y-53224765D01*
X58986160Y-53127275D01*
X58986170Y-53127268D01*
X59146050Y-52996059D01*
X59146059Y-52996050D01*
X59277268Y-52836170D01*
X59277275Y-52836160D01*
X59374765Y-52653767D01*
X59374767Y-52653762D01*
X59434808Y-52455836D01*
X59434809Y-52455831D01*
X59445232Y-52350000D01*
X58891746Y-52350000D01*
X58900000Y-52321889D01*
X58900000Y-52178111D01*
X58891746Y-52150000D01*
X59445232Y-52150000D01*
X59445232Y-52149999D01*
X59434809Y-52044168D01*
X59434808Y-52044163D01*
X59374767Y-51846237D01*
X59374765Y-51846232D01*
X59277275Y-51663839D01*
X59277268Y-51663829D01*
X59146059Y-51503949D01*
X59146050Y-51503940D01*
X58986170Y-51372731D01*
X58986160Y-51372724D01*
X58803767Y-51275234D01*
X58803762Y-51275232D01*
X58605836Y-51215191D01*
X58605831Y-51215190D01*
X58500000Y-51204767D01*
X58500000Y-51759235D01*
X58435763Y-51750000D01*
X58364237Y-51750000D01*
X58300000Y-51759235D01*
X58300000Y-51204767D01*
X58299999Y-51204767D01*
X58194168Y-51215190D01*
X58194163Y-51215191D01*
X57996237Y-51275232D01*
X57996232Y-51275234D01*
X57813839Y-51372724D01*
X57813829Y-51372731D01*
X57653949Y-51503940D01*
X57653940Y-51503949D01*
X57522731Y-51663829D01*
X57522724Y-51663839D01*
X57425234Y-51846232D01*
X57425232Y-51846237D01*
X57365191Y-52044163D01*
X57365190Y-52044168D01*
X57354767Y-52149999D01*
X57354768Y-52150000D01*
X57908254Y-52150000D01*
X57900000Y-52178111D01*
X57900000Y-52321889D01*
X57908254Y-52350000D01*
X57354767Y-52350000D01*
X56271688Y-52350000D01*
X56185889Y-52151096D01*
X56011130Y-51848404D01*
X55802412Y-51568047D01*
X55562558Y-51313817D01*
X55516576Y-51275234D01*
X55444435Y-51214700D01*
X55294811Y-51089151D01*
X55167008Y-51005093D01*
X55002794Y-50897087D01*
X54690453Y-50740224D01*
X54690452Y-50740223D01*
X54690451Y-50740223D01*
X54362011Y-50620681D01*
X54362012Y-50620681D01*
X54362006Y-50620679D01*
X54021924Y-50540078D01*
X53849889Y-50519970D01*
X53674759Y-50499500D01*
X53325241Y-50499500D01*
X53150111Y-50519970D01*
X52978075Y-50540078D01*
X52637993Y-50620679D01*
X52516297Y-50664973D01*
X52309549Y-50740223D01*
X52309548Y-50740223D01*
X52309546Y-50740224D01*
X51997205Y-50897087D01*
X51705190Y-51089150D01*
X51437443Y-51313815D01*
X51197591Y-51568043D01*
X50988871Y-51848402D01*
X50988869Y-51848405D01*
X50814111Y-52151095D01*
X50814108Y-52151102D01*
X50675674Y-52472027D01*
X50675672Y-52472034D01*
X50575430Y-52806865D01*
X50575430Y-52806866D01*
X50514738Y-53151070D01*
X50494415Y-53500000D01*
X50000500Y-53500000D01*
X50000500Y-53001290D01*
X50000568Y-52998699D01*
X50000688Y-52996404D01*
X50007497Y-52866486D01*
X50017839Y-52682341D01*
X50018367Y-52677406D01*
X50042611Y-52524331D01*
X50070324Y-52361227D01*
X50071301Y-52356756D01*
X50112425Y-52203279D01*
X50157232Y-52047752D01*
X50158574Y-52043748D01*
X50216127Y-51893815D01*
X50277557Y-51745510D01*
X50279159Y-51742037D01*
X50352515Y-51598068D01*
X50429880Y-51458088D01*
X50431622Y-51455185D01*
X50519985Y-51319117D01*
X50612377Y-51188905D01*
X50614263Y-51186420D01*
X50640995Y-51153407D01*
X50715836Y-51060986D01*
X50717324Y-51059236D01*
X50822990Y-50940996D01*
X50824848Y-50939031D01*
X50939031Y-50824848D01*
X50940996Y-50822990D01*
X51059236Y-50717324D01*
X51060986Y-50715836D01*
X51178494Y-50620681D01*
X51186420Y-50614263D01*
X51188905Y-50612377D01*
X51319117Y-50519985D01*
X51455185Y-50431622D01*
X51458088Y-50429880D01*
X51598055Y-50352522D01*
X51742037Y-50279159D01*
X51745510Y-50277557D01*
X51893815Y-50216127D01*
X52043748Y-50158574D01*
X52047752Y-50157232D01*
X52203279Y-50112425D01*
X52356756Y-50071301D01*
X52361227Y-50070324D01*
X52524284Y-50042618D01*
X52677406Y-50018367D01*
X52682341Y-50017839D01*
X52866566Y-50007493D01*
X52998706Y-50000567D01*
X53001290Y-50000500D01*
X111998710Y-50000500D01*
X112001293Y-50000567D01*
G37*
%TD.AperFunction*%
%TD*%
M02*
